<?xml version="1.0" standalone="no"?>
<!DOCTYPE svg PUBLIC "-//W3C//DTD SVG 20010904//EN"
 "http://www.w3.org/TR/2001/REC-SVG-20010904/DTD/svg10.dtd">
<svg version="1.0" xmlns="http://www.w3.org/2000/svg"
 width="1024.000000pt" height="1024.000000pt" viewBox="0 0 1024.000000 1024.000000"
 preserveAspectRatio="xMidYMid meet">

<g transform="translate(0.000000,1024.000000) scale(0.100000,-0.100000)"
fill="#000000" stroke="none">
<path d="M0 5120 l0 -5120 5120 0 5120 0 0 5120 0 5120 -150 0 c-82 0 -150 -2
-150 -4 0 -3 6 -11 14 -19 8 -7 16 -30 19 -49 2 -20 7 -40 11 -46 11 -18 -28
-52 -66 -58 -50 -9 -127 37 -196 115 l-53 61 -4835 0 -4834 0 0 -5120z m6320
1480 l25 -8 -28 -1 c-16 -1 -26 -5 -22 -11 4 -6 10 -8 15 -5 5 3 18 1 29 -4
14 -8 20 -8 23 1 6 17 86 -19 99 -44 5 -10 16 -18 24 -18 8 0 16 -4 16 -10 1
-5 2 -16 3 -22 1 -7 7 -12 14 -10 15 3 16 -14 2 -23 -6 -4 -7 -12 -4 -18 4 -7
4 -9 -1 -5 -4 4 -14 1 -21 -7 -19 -18 -18 -31 1 -15 13 11 15 8 15 -20 0 -32
0 -33 20 -15 11 10 20 29 20 42 0 13 7 26 15 29 23 9 65 -5 65 -21 0 -15 -34
-38 -42 -29 -13 12 -32 -33 -33 -79 -1 -54 -59 -207 -77 -207 -9 0 -7 106 5
232 2 27 0 35 -9 27 -7 -6 -15 -4 -23 5 -7 8 -44 33 -82 57 l-70 42 -292 -7
c-369 -8 -651 -23 -792 -42 -60 -8 -148 -19 -194 -25 -88 -10 -80 -6 -174 -89
-4 -3 2 -19 13 -33 21 -27 15 -38 -8 -15 -7 7 -12 10 -12 7 0 -3 19 -26 43
-51 49 -53 117 -164 117 -191 0 -18 -1 -18 -22 -3 -13 9 -32 20 -43 25 -25 11
-73 61 -77 81 -2 8 -18 29 -35 46 -38 37 -40 48 -12 67 20 15 20 15 -7 36 -26
20 -55 27 -66 16 -6 -6 14 -70 25 -81 4 -4 7 -24 7 -45 l0 -37 -71 14 c-39 7
-86 23 -106 35 l-35 22 69 67 c100 98 100 98 69 110 -29 11 -34 25 -11 34 8 3
20 17 25 30 12 34 77 73 148 91 103 26 345 43 1112 78 136 6 326 5 350 -3z
m-92 -187 c-10 -2 -26 -2 -35 0 -10 3 -2 5 17 5 19 0 27 -2 18 -5z m-93 -8
c-21 -7 -228 -11 -210 -4 11 4 65 8 120 8 55 -1 96 -2 90 -4z m-377 -12 c-10
-2 -26 -2 -35 0 -10 3 -2 5 17 5 19 0 27 -2 18 -5z m110 0 c-15 -2 -42 -2 -60
0 -18 2 -6 4 27 4 33 0 48 -2 33 -4z m-245 -10 c-18 -2 -48 -2 -65 0 -18 2 -4
4 32 4 36 0 50 -2 33 -4z m74 1 c-3 -3 -12 -4 -19 -1 -8 3 -5 6 6 6 11 1 17
-2 13 -5z m-1082 -14 c4 -6 1 -9 -6 -8 -7 2 -13 -2 -14 -9 0 -6 -3 -14 -7 -18
-9 -9 -5 16 5 33 10 15 14 15 22 2z m735 6 c0 -2 -7 -6 -15 -10 -8 -3 -15 -1
-15 4 0 6 7 10 15 10 8 0 15 -2 15 -4z m143 -3 c-13 -2 -35 -2 -50 0 -16 2 -5
4 22 4 28 0 40 -2 28 -4z m-274 -8 c-9 -8 -79 -12 -79 -4 0 5 19 9 42 9 23 0
39 -2 37 -5z m38 -1 c-3 -3 -12 -4 -19 -1 -8 3 -5 6 6 6 11 1 17 -2 13 -5z
m1403 -7 c26 -20 50 -60 50 -82 0 -12 -10 -31 -22 -42 -33 -30 -128 -94 -128
-87 0 4 -8 0 -17 -7 -9 -8 -14 -9 -12 -4 29 55 47 106 43 122 -3 12 2 36 11
54 32 62 45 70 75 46z m-1607 -4 c-7 -2 -19 -2 -25 0 -7 3 -2 5 12 5 14 0 19
-2 13 -5z m60 0 c-7 -2 -21 -2 -30 0 -10 3 -4 5 12 5 17 0 24 -2 18 -5z m-524
-63 c-29 -33 -55 -57 -58 -55 -6 7 94 113 107 115 2 0 -20 -27 -49 -60z m715
44 c11 -28 6 -52 -10 -58 -9 -3 -70 -6 -137 -6 -119 1 -122 1 -141 26 -24 34
-10 44 61 44 45 0 55 -4 69 -25 21 -32 44 -32 44 -2 0 33 7 37 61 37 33 0 49
-4 53 -16z m-743 -11 c-5 -10 -22 -29 -37 -43 -26 -23 -25 -22 5 18 34 43 49
55 32 25z m2215 -100 c-2 -2 7 -15 21 -29 20 -20 23 -27 12 -40 -17 -21 -53
-14 -56 11 -2 11 0 14 3 8 9 -21 23 -15 17 7 -3 11 -8 18 -12 16 -4 -3 -13 -1
-20 3 -10 7 -11 13 -1 30 9 18 14 20 26 10 8 -6 13 -14 10 -16z m-2310 -16
c-14 -19 -48 -71 -75 -117 -34 -57 -49 -75 -47 -57 3 28 56 113 107 171 39 45
48 47 15 3z m554 23 c0 -5 -8 -10 -17 -10 -15 0 -16 2 -3 10 19 12 20 12 20 0z
m-513 -20 c-4 -15 0 -20 13 -20 27 0 32 -28 10 -52 -11 -12 -20 -25 -20 -30 0
-4 -8 -8 -18 -8 -15 0 -18 -6 -14 -30 4 -31 22 -42 22 -14 0 8 4 13 10 9 5 -3
7 -12 3 -21 -3 -8 2 -23 12 -34 14 -16 15 -24 6 -51 -6 -18 -10 -75 -9 -128
l2 -96 6 85 c6 82 7 81 7 -40 0 -69 8 -192 16 -275 15 -150 29 -312 47 -565
37 -511 94 -1073 117 -1137 8 -23 30 -56 49 -73 19 -17 32 -35 29 -40 -3 -6 1
-7 9 -4 9 3 16 1 16 -5 0 -6 -4 -11 -10 -11 -5 0 -10 -4 -10 -10 0 -18 29 -11
53 13 12 12 24 22 27 22 3 1 19 8 35 17 17 8 50 19 75 23 25 3 54 9 65 11 13
4 5 -7 -21 -30 -23 -20 -56 -58 -74 -86 -18 -27 -34 -50 -37 -50 -2 0 -1 5 2
10 3 6 2 10 -3 10 -6 0 -12 -6 -15 -14 -8 -20 -112 -43 -130 -28 -10 8 -23 8
-50 0 -46 -14 -53 -8 -32 31 l16 31 -30 0 c-50 0 -49 21 2 53 27 17 53 15 42
-4 -4 -5 -2 -9 3 -9 17 0 22 13 10 27 -6 8 -7 13 -2 12 5 -1 17 -1 28 0 15 1
13 7 -16 39 -18 20 -39 51 -45 67 -6 17 -23 131 -37 255 -34 294 -35 305 -30
177 3 -59 16 -183 29 -275 13 -91 21 -170 19 -174 -3 -4 -11 -5 -19 -1 -8 3
-15 1 -15 -4 0 -5 -16 -9 -36 -10 -20 -1 -40 -7 -44 -14 -13 -20 -41 58 -45
121 -2 31 -8 67 -14 80 -6 14 -24 194 -41 400 -39 497 -38 484 -34 332 3 -87
0 -131 -6 -127 -6 3 -10 -1 -10 -10 0 -11 -5 -15 -14 -12 -8 3 -17 1 -20 -6
-2 -7 -5 -1 -5 12 -1 16 3 21 13 18 8 -3 16 2 19 14 3 10 1 19 -4 19 -5 0 -9
-4 -9 -10 0 -5 -5 -10 -11 -10 -6 0 -9 6 -6 14 9 23 -18 39 -34 20 -8 -10 -9
-18 -3 -22 18 -12 24 -43 14 -63 -8 -15 -15 -17 -29 -9 -10 5 -21 6 -25 3 -11
-11 -35 -12 -42 -2 -3 5 -15 9 -27 9 -12 0 -35 7 -50 15 -15 8 -34 12 -41 9
-8 -3 -21 4 -29 16 -8 11 -18 20 -23 19 -24 -4 -36 2 -30 16 4 10 -1 15 -15
15 -12 0 -23 8 -26 19 -3 12 -11 17 -20 14 -9 -4 -16 2 -20 17 -4 16 -11 21
-29 17 -28 -5 -253 58 -272 76 -7 8 -10 21 -6 30 7 19 109 70 182 92 39 12 53
24 86 71 21 30 44 58 52 61 17 6 19 43 2 44 -7 0 2 7 20 15 17 8 32 20 32 27
0 9 13 14 34 15 19 1 67 8 107 17 69 15 123 24 159 28 16 1 24 47 9 47 -5 0
-9 10 -9 22 l0 22 16 -22 c9 -13 13 -29 10 -37 -2 -7 0 -16 7 -19 8 -3 5 -10
-8 -22 -14 -11 -15 -15 -4 -11 13 4 18 -7 27 -58 7 -34 12 -79 12 -99 0 -20 4
-36 8 -36 9 0 9 5 -18 255 -23 205 -74 485 -64 351 2 -38 6 -72 9 -75 2 -4 6
-57 9 -117 l5 -109 -16 138 c-12 99 -20 137 -30 137 -7 0 -13 5 -13 10 0 6 5
10 10 10 13 0 13 57 1 65 -18 10 -96 14 -107 4 -7 -6 -16 -4 -23 5 -10 12 -5
28 24 83 21 37 41 73 46 79 5 6 6 14 2 17 -3 4 -1 7 5 7 14 0 14 -107 1 -116
-5 -3 -5 -14 1 -25 10 -18 12 -18 27 -3 14 13 14 20 4 36 -8 13 -9 23 -2 32 6
7 8 29 4 49 -3 20 -2 37 3 37 23 -1 32 -20 38 -85 12 -120 54 -341 63 -331 3
3 16 1 30 -5 34 -13 73 -1 73 22 0 12 -5 16 -14 13 -8 -3 -17 -1 -21 5 -4 8
-11 6 -21 -4 -39 -39 -51 -9 -63 150 -6 77 -11 166 -11 198 0 54 1 57 24 57
14 0 27 -4 30 -9 10 -15 46 0 46 19 0 24 -28 33 -46 15 -9 -8 -25 -15 -36 -15
-19 0 -20 4 -16 83 5 90 37 173 90 229 16 17 28 36 28 42 0 13 9 26 18 26 2 0
2 -9 -1 -20z m761 -22 c21 -21 13 -38 -17 -38 -31 0 -51 28 -29 42 18 11 32
10 46 -4z m1462 -17 c0 -19 18 -38 53 -56 26 -13 37 -41 13 -32 -15 6 -17 2
-12 -21 3 -15 11 -57 17 -94 6 -38 13 -68 16 -68 4 0 -1 53 -13 130 l-6 34 22
-24 c12 -14 19 -20 16 -14 -3 7 0 14 8 17 9 4 16 -3 20 -16 10 -36 7 -55 -9
-61 -8 -3 -14 -2 -14 2 3 18 -2 32 -11 32 -14 0 -12 -32 4 -53 12 -16 14 -16
20 -2 9 24 26 8 26 -25 0 -33 -17 -49 -26 -26 -7 17 -24 12 -24 -7 0 -7 4 -18
9 -26 8 -12 12 -12 25 -2 13 11 17 10 25 -10 9 -26 4 -49 -10 -49 -5 0 -12 7
-15 15 -5 11 -9 12 -19 2 -19 -18 1 -53 21 -36 11 9 14 8 14 -5 0 -9 5 -16 10
-16 6 0 10 -11 10 -25 0 -16 -6 -25 -15 -25 -10 0 -15 10 -15 27 0 25 -12 26
-16 0 -1 -7 -3 -16 -5 -22 -1 -5 1 -18 6 -28 6 -14 10 -15 22 -5 17 14 33 -4
33 -39 0 -27 -25 -31 -35 -5 -6 15 -8 14 -16 -6 -6 -17 -5 -28 5 -38 10 -10
16 -10 18 -2 7 21 38 0 38 -26 0 -31 -19 -44 -35 -23 -10 14 -13 14 -28 -4
-21 -24 -22 -40 -2 -33 9 4 18 -2 24 -17 l10 -24 0 23 c1 26 26 30 35 6 7 -19
-1 -54 -13 -54 -4 0 -12 5 -19 12 -17 17 -28 -18 -11 -38 11 -14 13 -14 21 1
13 22 28 9 28 -25 0 -35 -15 -47 -29 -23 -9 15 -10 13 -9 -13 2 -24 6 -30 19
-27 25 7 45 -33 28 -54 -12 -13 -14 -13 -25 2 -15 20 -28 3 -19 -26 5 -15 10
-17 19 -10 17 14 36 -6 36 -36 0 -24 -23 -32 -36 -12 -5 8 -10 6 -16 -5 -11
-20 10 -45 33 -39 18 5 35 -29 24 -47 -9 -14 -35 -13 -35 2 0 9 -3 9 -11 1
-12 -12 -3 -53 12 -53 5 0 9 5 9 10 0 6 7 10 15 10 10 0 15 -11 15 -35 0 -34
-12 -46 -25 -25 -10 16 -35 -8 -28 -26 6 -17 30 -19 35 -2 7 21 28 -3 28 -32
0 -32 -18 -50 -30 -30 -12 20 -32 1 -24 -23 9 -32 13 -33 28 -11 8 10 17 17
19 14 12 -12 16 -56 7 -70 -9 -13 -12 -13 -21 3 -11 18 -29 15 -29 -6 0 -7 5
-19 10 -27 8 -13 11 -13 19 -1 12 19 31 4 31 -25 0 -20 -4 -25 -22 -22 -19 2
-23 -1 -21 -22 5 -52 7 -58 22 -52 10 4 11 7 3 10 -17 5 -15 27 3 42 8 7 15
11 16 9 10 -53 8 -97 -5 -108 -10 -8 -16 -9 -21 -1 -11 18 -23 11 -18 -10 4
-14 11 -19 24 -15 25 8 44 -28 29 -55 -12 -23 -21 -25 -38 -8 -9 9 -12 7 -12
-8 0 -27 10 -36 26 -23 19 15 34 2 34 -30 0 -37 -10 -45 -31 -25 -20 18 -30 7
-22 -24 5 -22 23 -31 23 -12 0 24 29 7 35 -21 8 -37 -6 -57 -25 -34 -7 8 -16
15 -21 15 -12 0 -11 -31 1 -50 8 -13 11 -13 19 -1 13 20 31 4 31 -30 0 -30
-17 -38 -38 -17 -9 9 -12 9 -12 -3 0 -24 16 -40 32 -34 11 4 18 -2 22 -21 13
-49 -25 -58 -44 -10 -8 17 -9 13 -7 -19 2 -34 5 -40 25 -40 27 0 42 -20 35
-46 -6 -22 -14 -24 -30 -8 -6 6 -16 8 -22 5 -17 -11 9 -44 31 -38 15 3 18 -1
18 -27 0 -33 -8 -39 -28 -19 -16 16 -25 4 -17 -22 4 -12 13 -19 23 -18 11 2
18 -5 20 -21 4 -26 -17 -55 -25 -33 -3 6 -12 12 -20 12 -9 0 -13 6 -9 15 3 8
2 25 -3 37 -7 19 -9 14 -15 -27 -8 -53 -48 -125 -69 -125 -20 0 -28 12 -18 24
5 6 11 16 13 21 1 6 7 9 12 7 22 -7 35 36 36 115 0 133 -56 962 -96 1393 -12
140 -25 302 -28 360 -2 58 -12 152 -21 210 -16 103 -18 106 -58 141 -42 37
-42 37 -23 58 24 26 36 27 36 2z m113 -63 c9 -18 13 -36 11 -40 -11 -17 -24
-7 -39 28 -18 44 -18 44 -1 44 7 0 20 -14 29 -32z m-2228 6 c20 -16 20 -16 -3
-9 -16 5 -22 3 -20 -7 2 -7 -3 -12 -10 -10 -10 2 -10 -2 -1 -19 15 -28 -11
-59 -34 -40 -15 12 -31 55 -17 46 10 -6 50 29 50 44 0 15 11 13 35 -5z m1829
-63 c-5 -5 -33 30 -34 43 0 4 9 -2 19 -15 11 -13 17 -26 15 -28z m2 -93 l72
-73 16 -220 c9 -121 23 -326 31 -455 8 -129 22 -318 30 -420 8 -102 19 -264
26 -360 23 -344 20 -325 51 -325 15 1 26 -2 26 -5 0 -3 1 -9 2 -15 5 -16 6
-138 2 -125 -3 8 -8 8 -18 -1 -8 -6 -12 -15 -9 -19 3 -5 -4 -6 -15 -3 -17 5
-20 14 -20 59 0 51 -1 54 -25 54 -23 0 -24 2 -13 25 6 14 15 25 20 25 18 0 6
16 -24 32 -80 40 -81 41 -72 26 13 -19 13 -108 0 -108 -6 0 -17 4 -25 9 -14 9
-13 26 5 95 5 21 2 27 -20 36 -23 8 -26 15 -27 57 -1 27 -3 66 -4 88 -7 72
-24 315 -40 540 -8 121 -20 274 -25 340 -5 66 -17 223 -26 349 l-17 230 -58
53 -57 54 29 82 c16 45 32 88 34 95 6 18 56 -22 151 -120z m-396 102 c0 -5 -2
-10 -4 -10 -3 0 -8 5 -11 10 -3 6 -1 10 4 10 6 0 11 -4 11 -10z m-304 -19 c-3
-5 0 -12 6 -14 7 -3 4 -6 -7 -6 -13 -1 -16 -4 -8 -9 9 -6 6 -11 -8 -21 -12 -7
-18 -8 -14 -2 4 7 -4 11 -20 11 -16 0 -24 -4 -19 -11 5 -8 1 -8 -14 0 -26 14
-35 14 -27 1 3 -6 -1 -7 -9 -4 -10 4 -16 1 -16 -9 0 -21 33 -30 72 -19 77 20
178 12 139 -12 -4 -3 -11 -19 -14 -35 -6 -29 -7 -29 -91 -36 -66 -6 -83 -10
-79 -21 3 -8 0 -14 -6 -14 -6 0 -11 7 -11 16 0 13 -8 15 -42 10 -24 -3 -89 -8
-145 -12 l-101 -6 -27 40 c-26 40 -26 42 -9 59 17 17 17 18 -13 21 -29 3 -73
46 -60 58 15 15 532 30 523 15z m-1171 -58 c-14 -27 -25 -54 -25 -60 0 -7 -4
-13 -10 -13 -5 0 -10 2 -10 5 0 11 35 91 45 102 23 28 24 10 0 -34z m1394 -7
c5 -12 26 -33 46 -45 20 -11 34 -25 31 -30 -8 -12 -115 -20 -161 -11 -23 4
-30 8 -17 9 13 0 20 6 17 11 -3 6 0 10 8 10 8 0 22 18 32 40 21 46 32 50 44
16z m-1650 -53 c-1 -27 -3 -40 -6 -30 -5 21 -23 23 -23 2 0 -8 -4 -15 -9 -15
-5 0 -7 -10 -3 -22 3 -14 2 -19 -7 -14 -15 10 -38 -15 -43 -45 -2 -16 -9 -23
-20 -21 -13 2 -17 -3 -15 -19 1 -16 -7 -26 -30 -38 -18 -9 -31 -21 -29 -27 6
-16 -14 -34 -29 -28 -8 3 -12 -2 -12 -12 1 -11 -8 -20 -23 -25 -14 -4 -21 -7
-16 -8 5 -1 3 -8 -4 -16 -7 -8 -16 -12 -21 -9 -5 3 -9 -2 -9 -11 0 -8 -8 -19
-17 -22 -10 -4 -20 -9 -23 -13 -16 -20 -81 -61 -88 -56 -6 3 -12 -3 -15 -14
-3 -11 -12 -20 -21 -20 -9 0 -24 -7 -33 -16 -37 -32 -124 -85 -132 -79 -5 2
-11 -2 -15 -10 -3 -8 -14 -15 -25 -15 -11 0 -23 -4 -26 -10 -3 -5 -15 -10 -26
-10 -10 0 -19 -4 -19 -10 0 -5 -7 -10 -15 -10 -8 0 -23 -4 -33 -10 -9 -5 -34
-16 -54 -25 -21 -8 -54 -22 -73 -31 -19 -8 -39 -12 -44 -9 -5 3 -13 0 -16 -6
-4 -5 -13 -8 -21 -5 -8 3 -14 1 -14 -4 0 -5 -16 -12 -35 -16 -19 -3 -38 -10
-40 -15 -3 -4 -12 -6 -20 -2 -9 3 -22 0 -30 -7 -8 -7 -21 -10 -30 -7 -8 4 -17
2 -20 -4 -4 -5 -10 -7 -15 -4 -5 3 -13 -2 -18 -12 -8 -14 -13 -15 -25 -4 -13
10 -17 9 -25 -5 -9 -15 -13 -16 -26 -5 -13 11 -17 11 -22 -3 -7 -19 -44 -22
-44 -3 -1 7 -6 4 -15 -6 -9 -13 -20 -17 -34 -12 -13 4 -21 2 -21 -5 0 -7 -8
-10 -20 -7 -11 3 -20 1 -20 -4 0 -5 -11 -9 -25 -9 -13 0 -29 -8 -35 -17 -8
-13 -13 -14 -16 -5 -8 17 -24 15 -24 -3 0 -8 -4 -15 -10 -15 -5 0 -10 4 -10 9
0 9 -43 8 -72 -3 -10 -3 -26 -9 -35 -12 -10 -4 -31 -7 -48 -8 -16 -1 -34 -4
-40 -8 -5 -3 -50 -16 -100 -28 -49 -12 -98 -24 -107 -26 -13 -4 -18 0 -18 14
0 23 40 44 120 61 30 6 105 23 165 37 61 14 120 26 132 27 12 1 25 5 29 10 4
4 19 7 34 7 15 0 30 3 33 7 4 3 19 8 35 10 44 5 66 9 82 15 8 4 22 7 30 7 24
1 54 8 71 15 9 4 20 6 25 5 5 -1 22 3 37 9 16 7 32 10 37 7 5 -3 12 -1 15 5 4
6 14 10 23 8 10 -1 27 4 40 11 13 7 30 10 37 7 7 -2 19 2 26 10 7 9 21 13 31
11 10 -3 18 -2 18 3 0 11 100 42 117 36 8 -3 12 -2 9 3 -3 4 18 18 47 30 29
12 69 31 90 42 21 11 41 17 46 14 5 -2 11 2 15 10 3 8 14 15 24 15 10 0 27 9
37 20 10 11 24 20 31 20 28 0 269 169 347 244 35 32 110 121 174 205 13 16 27
40 33 55 14 38 20 32 19 -21z m1846 -15 c6 -4 -17 -8 -50 -8 -46 1 -56 3 -42
11 9 6 26 8 36 4 11 -3 22 -1 26 5 4 6 10 8 14 3 3 -4 11 -11 16 -15z m-1848
-70 c-3 -8 -6 -5 -6 6 -1 11 2 17 5 13 3 -3 4 -12 1 -19z m1157 -21 c1 -20 -4
-22 -56 -25 -35 -2 -58 1 -58 7 0 6 13 9 28 7 20 -2 36 4 52 21 25 26 33 24
34 -10z m46 8 c0 -8 -7 -15 -15 -15 -16 0 -20 12 -8 23 11 12 23 8 23 -8z
m163 8 c-7 -3 -13 -11 -13 -19 0 -9 -4 -12 -10 -9 -18 11 -10 31 13 32 12 0
16 -1 10 -4z m330 -36 c26 -22 38 -45 17 -32 -5 3 -10 -1 -10 -9 0 -9 9 -21
20 -28 28 -18 25 -26 -16 -43 -45 -19 -50 -19 -34 0 11 13 8 15 -15 15 -18 0
-28 6 -32 20 -3 11 -10 17 -15 14 -10 -6 17 52 34 74 14 17 21 15 51 -11z
m299 -69 c-7 -7 -12 -8 -12 -2 0 14 12 26 19 19 2 -3 -1 -11 -7 -17z m638
-109 c0 -10 -4 -19 -10 -19 -5 0 -10 12 -10 26 0 14 4 23 10 19 6 -3 10 -15
10 -26z m-2793 -3 c-1 -6 8 -12 21 -14 13 -2 26 -10 29 -18 7 -19 23 -18 38 3
11 15 15 15 29 4 12 -10 14 -17 5 -27 -6 -8 -15 -12 -19 -9 -4 3 -13 -2 -20
-10 -10 -12 -10 -15 3 -15 24 0 27 -25 5 -44 -15 -13 -17 -20 -8 -31 13 -15
-3 -30 -21 -19 -8 4 -9 -3 -5 -23 5 -22 3 -32 -8 -36 -8 -3 -17 -20 -21 -37
-4 -17 -13 -34 -21 -37 -8 -3 -14 -14 -14 -25 0 -11 -8 -22 -20 -25 -11 -3
-20 -14 -20 -24 0 -11 -7 -22 -16 -26 -8 -3 -20 -17 -25 -30 -6 -17 -14 -23
-25 -19 -11 4 -18 -1 -21 -14 -3 -11 -9 -21 -14 -21 -5 -1 -15 -2 -21 -3 -7 0
-13 -10 -13 -21 0 -13 -8 -21 -21 -23 -12 -2 -24 -12 -27 -23 -3 -11 -12 -19
-21 -17 -8 2 -21 -6 -29 -16 -8 -11 -24 -20 -36 -21 -11 -1 -27 -9 -34 -19 -7
-9 -22 -18 -34 -19 -13 0 -25 -7 -27 -14 -3 -7 -13 -13 -23 -13 -10 0 -27 -7
-37 -15 -10 -8 -23 -12 -27 -9 -5 3 -19 -4 -31 -15 -12 -12 -28 -21 -35 -21
-7 0 -21 -4 -31 -9 -51 -26 -71 -33 -80 -27 -5 3 -15 0 -21 -8 -7 -8 -23 -17
-36 -20 -31 -8 -32 -24 -2 -35 16 -7 25 -5 35 7 11 14 13 14 28 -4 11 -13 17
-15 20 -6 8 17 45 16 38 -2 -3 -9 4 -16 21 -20 18 -5 25 -12 21 -21 -3 -9 0
-15 8 -15 8 0 17 6 19 13 3 7 6 4 6 -7 1 -14 7 -17 30 -14 17 2 28 1 26 -3 -3
-4 3 -10 12 -14 10 -3 19 -2 21 4 2 7 12 6 27 -1 14 -6 22 -15 19 -19 -3 -5 0
-9 5 -9 6 0 11 6 11 13 0 7 5 5 10 -5 12 -19 166 -82 180 -73 6 4 10 -1 10
-10 0 -9 4 -14 9 -11 4 3 6 17 3 32 -4 23 -3 25 14 16 11 -6 43 -29 73 -51 30
-22 69 -44 88 -47 18 -3 33 -10 33 -14 0 -4 -11 -5 -25 -2 -27 5 -35 -12 -9
-22 8 -3 12 -11 9 -16 -4 -6 -3 -9 2 -8 4 2 8 -1 8 -6 0 -5 11 -13 25 -18 20
-7 22 -11 10 -18 -12 -8 -11 -10 6 -10 20 0 102 -91 159 -179 l29 -43 8 28 c8
29 15 118 18 224 2 43 4 50 10 30 10 -31 11 -149 1 -173 -6 -17 -1 -112 13
-243 5 -46 4 -52 -14 -57 -19 -5 -37 22 -32 49 1 7 -4 14 -13 18 -8 3 -15 14
-15 24 0 11 -7 25 -15 32 -8 7 -15 26 -15 42 0 16 -4 27 -9 23 -12 -7 -30 25
-24 41 2 6 -6 14 -18 17 -16 4 -20 11 -16 26 4 16 0 21 -14 21 -13 0 -19 7
-19 24 0 18 -6 25 -22 28 -13 2 -23 10 -23 18 0 8 -9 18 -20 21 -13 3 -19 13
-18 27 2 17 -2 21 -20 19 -19 -2 -22 2 -19 28 2 25 0 27 -8 13 -15 -24 -36
-23 -43 3 -4 14 -11 20 -20 16 -19 -7 -37 11 -30 31 5 12 1 14 -20 8 -19 -4
-31 -1 -45 14 -11 12 -26 18 -35 15 -10 -4 -18 1 -22 15 -5 17 -12 20 -30 16
-16 -4 -27 -1 -33 10 -6 10 -16 15 -25 11 -9 -3 -19 -2 -22 3 -4 6 -15 10 -26
10 -10 0 -19 5 -19 11 0 6 -9 9 -20 6 -11 -3 -23 -1 -26 4 -3 5 -16 9 -28 9
-13 0 -29 7 -36 15 -10 12 -16 13 -27 3 -12 -10 -18 -9 -28 5 -7 11 -19 15
-29 11 -10 -4 -25 1 -35 10 -15 13 -20 14 -24 4 -3 -10 -8 -11 -26 0 -11 6
-31 12 -45 12 -32 0 -46 20 -40 59 l5 32 -25 -16 c-15 -10 -33 -14 -46 -10
-15 5 -22 0 -30 -20 -8 -20 -15 -25 -28 -20 -35 15 -63 17 -77 5 -12 -10 -18
-10 -29 -1 -11 10 -17 8 -25 -6 -9 -16 -10 -16 -11 -1 0 9 8 21 17 27 10 5 15
12 12 16 -4 3 -19 -5 -33 -18 -25 -23 -36 -44 -17 -32 5 3 12 1 16 -5 3 -5 13
-10 21 -10 27 0 45 -28 42 -62 -2 -24 1 -33 15 -36 12 -2 17 3 17 18 0 12 -4
19 -10 15 -5 -3 -8 7 -7 23 1 18 7 28 13 25 7 -2 15 0 18 6 4 6 13 8 20 5 8
-3 17 0 21 5 3 6 11 9 16 6 5 -4 9 -2 9 3 0 15 48 42 64 36 25 -10 -22 -54
-58 -55 -29 0 -29 -1 -8 -9 12 -5 22 -13 22 -18 0 -15 -26 -33 -34 -24 -5 4
-6 -4 -4 -18 2 -18 -3 -28 -19 -35 -13 -5 -23 -18 -23 -27 0 -10 -7 -18 -15
-18 -8 0 -15 -7 -15 -15 0 -8 -6 -15 -14 -15 -7 0 -16 -10 -19 -21 -4 -14 -11
-20 -21 -16 -8 3 -17 -1 -20 -9 -3 -8 -14 -14 -25 -14 -11 0 -21 -5 -23 -11
-4 -11 -52 -13 -108 -6 -33 5 -100 37 -100 48 0 5 -5 9 -11 9 -10 0 -69 57
-69 66 0 3 -12 17 -26 32 l-26 27 18 -34 c11 -19 51 -67 90 -107 39 -40 69
-76 66 -79 -27 -26 -109 21 -218 127 -81 79 -101 92 -144 102 -28 6 -51 16
-51 21 0 6 38 15 85 21 46 7 89 15 96 19 6 4 17 1 25 -5 12 -10 15 -9 15 4 0
9 -4 16 -10 16 -5 0 -10 7 -10 15 0 8 6 15 13 15 20 0 38 -16 35 -30 -2 -7 3
-15 11 -18 10 -3 12 0 8 12 -4 11 7 28 33 52 22 20 37 40 35 45 -3 4 -1 10 5
14 5 3 10 -1 10 -9 0 -9 6 -16 14 -16 8 0 17 -6 19 -12 7 -18 27 10 26 37 0
11 -3 14 -6 8 -7 -20 -31 -15 -43 8 -29 54 26 118 113 132 36 6 26 -4 -25 -24
-38 -15 -52 -35 -22 -33 8 1 14 -2 14 -7 0 -14 28 -11 34 4 5 10 7 10 12 0 3
-7 20 -12 37 -12 21 1 25 3 12 6 -36 9 -41 23 -7 23 18 0 32 -4 32 -9 0 -16
25 -19 38 -5 11 12 7 18 -24 36 -56 33 -20 34 43 2 50 -27 121 -92 150 -140
10 -16 13 -17 22 -4 8 11 5 17 -9 22 -11 4 -20 12 -20 19 0 12 -57 69 -70 69
-5 0 -20 14 -33 30 -14 17 -30 30 -35 30 -5 0 -23 7 -40 16 -36 18 -121 15
-145 -4 -8 -7 -22 -10 -31 -6 -11 4 -16 1 -16 -11 0 -11 -5 -15 -14 -12 -8 3
-16 -2 -19 -14 -3 -11 -14 -19 -26 -19 -13 0 -19 -5 -15 -14 3 -8 0 -17 -6
-21 -6 -4 -15 -18 -20 -31 -5 -13 -14 -24 -20 -24 -19 0 -23 30 -6 49 10 11
13 22 8 25 -6 3 -19 -12 -30 -34 -10 -22 -22 -37 -26 -33 -3 3 -6 0 -6 -7 0
-7 -2 -11 -5 -8 -3 3 4 22 16 42 11 20 18 36 14 36 -4 0 -36 -30 -71 -66 -73
-76 -184 -141 -168 -99 4 8 11 15 18 15 6 0 17 9 24 20 7 11 23 20 36 20 17 0
35 13 57 43 18 23 24 34 13 25 -29 -25 -41 -22 -53 14 l-11 32 -30 -29 c-53
-51 -53 -1 0 56 17 17 28 35 25 39 -3 4 9 10 25 12 17 3 30 1 30 -4 0 -4 9 -8
19 -8 11 0 21 -4 23 -9 2 -5 45 10 96 35 52 24 100 44 108 44 21 0 17 -15 -8
-34 l-23 -17 25 7 c14 3 30 12 36 20 6 8 17 14 25 15 9 0 8 3 -4 7 -16 7 -16
9 3 25 19 16 25 11 21 -15 -2 -17 18 -7 24 11 4 12 12 18 21 14 9 -3 14 2 14
15 0 13 6 21 18 20 28 0 130 20 149 30 10 5 23 7 29 5 6 -2 37 8 67 22 31 14
62 25 71 25 8 0 18 5 21 10 3 6 19 10 34 10 15 0 33 6 40 13 10 8 12 8 7 0 -8
-14 35 -47 44 -33 3 5 21 16 40 25 42 19 73 37 91 52 21 16 69 25 69 13 0 -5
4 -10 10 -10 5 0 7 7 4 15 -4 10 -2 13 7 10 8 -3 32 12 54 32 22 21 54 48 70
60 17 12 24 23 18 23 -7 0 -13 8 -13 18 1 16 1 16 11 0 18 -31 52 -20 123 42
38 33 77 60 87 60 18 0 44 52 41 82 -1 12 6 16 28 16 16 -1 28 -6 27 -12z
m2831 -23 c36 -34 146 -113 158 -113 2 0 21 -10 42 -23 20 -13 53 -29 72 -37
44 -17 90 -48 90 -61 0 -23 -114 16 -160 56 -8 7 -26 16 -39 20 -13 4 -39 22
-57 40 -18 18 -35 31 -37 28 -3 -2 -20 12 -39 31 -19 20 -40 36 -47 36 -6 0
-11 9 -11 20 0 25 5 25 28 3z m-1612 -69 l40 -41 12 -134 c6 -74 14 -172 18
-219 3 -47 7 -97 9 -112 2 -23 -2 -27 -28 -30 -24 -2 -33 -9 -37 -28 -5 -23
-12 -26 -39 -21 -5 0 -11 12 -13 26 -4 19 -1 25 11 25 10 0 26 7 37 15 18 14
17 15 -15 10 -34 -6 -35 -6 -17 14 17 19 17 20 -3 40 -12 12 -21 27 -21 34 0
6 -5 44 -10 82 -5 39 -12 146 -16 240 -7 192 -12 185 72 99z m-426 17 c0 8 16
-3 35 -24 29 -32 37 -50 45 -105 15 -108 13 -199 -6 -206 -26 -10 -36 -7 -31
8 3 8 1 16 -5 18 -7 3 -12 34 -14 79 -1 41 -5 85 -8 99 -4 14 -8 43 -9 65 -2
27 -8 40 -17 40 -8 0 -16 9 -19 20 -3 17 -1 18 13 6 13 -11 16 -11 16 0z m262
-25 c18 -13 25 -56 33 -210 2 -43 0 -76 -6 -76 -5 0 -8 6 -6 13 1 6 -5 13 -13
13 -32 3 -35 5 -21 13 12 8 12 12 2 25 -9 10 -14 51 -15 118 0 57 -5 106 -11
110 -6 5 -4 8 5 8 8 -1 23 -7 32 -14z m1783 -36 c22 -22 45 -40 52 -40 7 0 13
-4 13 -9 0 -5 9 -11 20 -14 13 -3 20 -14 20 -30 0 -41 -15 -39 -37 4 l-21 41
-4 -40 c-2 -22 0 -38 4 -36 11 7 40 -68 35 -93 -4 -21 -3 -21 18 -5 21 16 24
49 4 36 -5 -3 -9 0 -9 5 0 6 5 11 10 11 6 0 10 9 10 19 0 23 16 36 25 22 3 -6
19 -8 35 -6 34 4 60 -16 60 -46 0 -25 -25 -35 -45 -19 -12 10 -15 9 -15 -4 0
-13 -5 -16 -21 -11 -17 6 -20 3 -17 -12 2 -11 11 -17 22 -15 11 2 20 -4 23
-17 3 -14 14 -21 29 -21 12 0 30 -10 38 -22 18 -25 21 -12 6 26 -12 32 7 47
27 20 12 -16 15 -17 23 -4 5 8 10 19 10 23 0 5 8 7 18 5 15 -3 17 -13 14 -71
-2 -41 0 -67 6 -67 6 0 12 6 15 13 2 6 2 2 1 -10 -5 -29 16 -41 32 -18 12 16
14 15 20 -9 6 -27 0 -94 -10 -104 -3 -3 -12 1 -21 8 -12 10 -15 10 -15 0 0 -8
-8 -22 -17 -32 -26 -28 -3 -44 29 -19 31 25 48 12 48 -36 0 -27 -4 -33 -21
-33 -16 0 -20 -5 -16 -20 3 -13 0 -20 -9 -20 -8 0 -14 -4 -14 -10 0 -5 -5 -10
-11 -10 -6 0 -9 7 -5 15 3 9 0 15 -9 15 -18 0 -19 21 -2 39 10 10 8 12 -8 9
-16 -2 -20 3 -20 24 -1 16 -6 33 -13 40 -15 15 -16 82 -2 109 12 21 10 22 -14
13 -9 -3 -16 -17 -16 -30 0 -26 -27 -44 -39 -27 -3 6 -16 13 -28 17 -13 4 -23
12 -23 17 0 5 -4 9 -10 9 -13 0 -50 37 -50 50 0 5 -7 7 -15 4 -9 -4 -15 0 -15
10 0 9 -5 16 -10 16 -6 0 -26 17 -46 37 -32 33 -36 41 -31 76 6 45 -15 89 -39
80 -10 -4 -14 3 -14 27 0 31 1 32 18 17 16 -15 19 -15 30 3 15 24 15 37 2 53
-6 7 -17 21 -25 32 -13 19 -14 18 -12 -15 1 -19 -2 -37 -8 -40 -6 -3 -11 18
-11 53 -1 31 1 57 5 57 3 -1 24 -19 46 -40z m-2153 -10 c3 -16 1 -30 -4 -30
-4 0 -8 14 -8 30 0 17 2 30 4 30 2 0 6 -13 8 -30z m258 -22 c0 -33 -17 -19
-18 14 -1 23 2 28 8 18 6 -8 10 -23 10 -32z m974 -53 c3 -9 0 -15 -9 -15 -9 0
-12 6 -9 15 4 8 7 15 9 15 2 0 5 -7 9 -15z m-2464 -105 c0 -5 -2 -10 -4 -10
-3 0 -8 5 -11 10 -3 6 -1 10 4 10 6 0 11 -4 11 -10z m3670 0 c0 -5 -7 -10 -15
-10 -8 0 -15 5 -15 10 0 6 7 10 15 10 8 0 15 -4 15 -10z m-296 -15 c-4 -8 -10
-15 -15 -15 -5 0 -9 7 -9 15 0 8 7 15 15 15 9 0 12 -6 9 -15z m-4 -35 c0 -5
-4 -10 -10 -10 -5 0 -10 5 -10 10 0 6 5 10 10 10 6 0 10 -4 10 -10z m-2326
-33 c4 -19 3 -26 -4 -22 -5 3 -10 18 -10 32 0 32 5 28 14 -10z m33 1 c-3 -7
-5 -2 -5 12 0 14 2 19 5 13 2 -7 2 -19 0 -25z m1393 12 c0 -5 -9 -10 -21 -10
-11 0 -17 5 -14 10 3 6 13 10 21 10 8 0 14 -4 14 -10z m910 -35 c0 -8 -4 -15
-10 -15 -5 0 -10 7 -10 15 0 8 5 15 10 15 6 0 10 -7 10 -15z m-2880 -26 c0
-11 -7 -22 -15 -26 -24 -9 -31 5 -10 21 11 8 15 18 10 26 -5 9 -4 11 3 6 7 -4
12 -16 12 -27z m1144 15 c8 -20 -2 -56 -13 -50 -11 7 -12 66 -1 66 4 0 11 -7
14 -16z m-224 -4 c0 -5 -5 -10 -11 -10 -5 0 -7 5 -4 10 3 6 8 10 11 10 2 0 4
-4 4 -10z m1190 -9 c0 -5 -9 -11 -20 -14 -20 -5 -26 3 -13 16 9 10 33 8 33 -2z
m35 -1 c3 -5 -1 -10 -9 -10 -9 0 -16 5 -16 10 0 6 4 10 9 10 6 0 13 -4 16 -10z
m759 -9 c3 -4 3 -11 0 -14 -8 -8 -34 3 -34 14 0 11 27 12 34 0z m-2158 -26 c1
-8 -4 -15 -12 -15 -16 0 -16 2 -8 25 7 17 17 13 20 -10z m954 4 c0 -5 -7 -9
-15 -9 -15 0 -20 12 -9 23 8 8 24 -1 24 -14z m-760 7 c0 -2 -7 -7 -16 -10 -8
-3 -12 -2 -9 4 6 10 25 14 25 6z m523 -10 c4 -10 1 -13 -9 -9 -15 6 -19 23 -5
23 5 0 11 -7 14 -14z m1464 -16 c-4 -24 -27 -51 -27 -32 0 7 -5 12 -11 12 -5
0 -7 -4 -4 -10 3 -5 1 -18 -5 -27 -8 -14 -10 -10 -8 22 2 22 8 40 15 40 6 0
15 3 19 8 14 13 24 7 21 -13z m-762 0 c3 -5 -1 -10 -10 -10 -9 0 -13 5 -10 10
3 6 8 10 10 10 2 0 7 -4 10 -10z m-2235 -4 c0 -3 -4 -8 -10 -11 -5 -3 -10 -1
-10 4 0 6 5 11 10 11 6 0 10 -2 10 -4z m1010 -16 c0 -5 -4 -10 -10 -10 -5 0
-10 5 -10 10 0 6 5 10 10 10 6 0 10 -4 10 -10z m-383 -32 c-3 -7 -5 -2 -5 12
0 14 2 19 5 13 2 -7 2 -19 0 -25z m37 -23 c6 -50 24 -309 24 -354 1 -22 0 -22
-13 -5 -13 18 -14 16 -15 -16 0 -46 -15 -70 -23 -39 -3 12 -4 34 -1 48 3 14
-2 91 -9 170 -16 160 -11 222 10 131 l12 -55 -1 75 c0 41 0 81 1 89 2 26 9 6
15 -44z m1431 43 c2 -7 6 -47 9 -90 4 -70 3 -76 -16 -81 -11 -3 -17 -10 -13
-16 4 -7 -4 -11 -20 -11 -14 0 -24 -4 -21 -8 3 -5 -8 -6 -24 -4 -17 2 -38 1
-47 -3 -10 -5 -34 -9 -53 -9 -19 -1 -34 -6 -33 -11 0 -6 -5 -15 -12 -22 -10
-9 -14 -2 -19 38 -9 63 -16 84 -26 69 -5 -8 -12 -7 -24 5 -16 16 -29 16 -68 0
-13 -5 -18 -2 -18 8 0 30 -20 28 -26 -2 -7 -34 -27 -39 -81 -20 -25 8 -32 17
-37 47 -12 72 -9 85 19 80 14 -3 28 -1 31 3 3 5 27 9 55 9 38 0 49 -4 49 -16
0 -9 6 -14 13 -11 6 2 19 -4 27 -14 15 -17 32 -23 58 -20 7 1 12 16 12 39 l0
39 57 2 c31 1 59 3 60 5 2 2 35 4 74 5 48 1 71 -3 74 -11z m-3300 -18 c3 -5
-1 -10 -9 -10 -9 0 -16 5 -16 10 0 6 4 10 9 10 6 0 13 -4 16 -10z m4217 -7 c0
-10 1 -24 1 -31 -1 -8 7 -22 18 -33 23 -23 24 -55 4 -96 -8 -17 -16 -43 -18
-59 -2 -16 -7 -38 -11 -49 -4 -11 -12 -32 -18 -47 -16 -43 -26 -33 -30 30 -3
45 0 61 14 75 10 10 15 23 11 30 -5 8 -8 8 -11 -1 -7 -23 -22 -12 -22 18 0 17
5 30 10 30 6 0 10 -4 10 -10 0 -5 7 -7 15 -4 9 4 15 0 16 -7 1 -18 17 30 18
55 1 14 -2 16 -12 8 -10 -9 -13 1 -15 49 -2 35 2 59 8 59 5 0 11 -8 12 -17z
m-3072 -22 c0 -11 -31 -24 -39 -16 -3 3 1 10 9 15 19 12 30 12 30 1z m3030
-31 c10 -24 10 -33 0 -45 -17 -21 -30 -3 -30 43 0 40 14 41 30 2z m-2045 10
c3 -5 -3 -10 -14 -10 -12 0 -21 5 -21 10 0 6 6 10 14 10 8 0 18 -4 21 -10z
m-2275 -20 c0 -5 -7 -10 -16 -10 -8 0 -12 5 -9 10 3 6 10 10 16 10 5 0 9 -4 9
-10z m2217 -5 c0 -8 -6 -15 -14 -15 -17 0 -17 17 0 23 6 3 12 6 13 6 0 1 1 -6
1 -14z m247 7 c2 -4 1 -14 -4 -22 -6 -9 -1 -20 16 -33 28 -22 23 -37 -13 -37
-21 0 -24 4 -20 22 4 14 0 29 -10 40 -9 10 -12 18 -7 18 5 0 2 5 -6 10 -12 8
-9 10 12 10 15 0 29 -4 32 -8z m2080 -24 c8 -12 13 -25 10 -29 -2 -4 0 -10 6
-14 17 -10 11 -33 -9 -40 -21 -6 -111 -93 -111 -106 0 -5 -6 -9 -12 -9 -7 -1
-24 -24 -37 -52 -22 -46 -53 -88 -66 -88 -3 0 -5 11 -5 25 0 18 4 23 15 19 10
-4 15 0 15 15 0 12 4 21 9 21 5 0 7 9 4 20 -3 11 0 20 6 20 6 0 11 7 11 15 0
8 5 15 10 15 6 0 10 9 10 21 0 11 22 42 51 70 33 32 47 53 42 61 -4 7 -9 23
-11 36 -2 18 2 22 22 22 14 0 31 -9 40 -22z m-1774 8 c0 -3 -4 -8 -10 -11 -5
-3 -10 -1 -10 4 0 6 5 11 10 11 6 0 10 -2 10 -4z m-470 -20 c0 -2 -7 -6 -15
-10 -8 -3 -15 -1 -15 4 0 6 7 10 15 10 8 0 15 -2 15 -4z m1315 -6 c8 -13 -5
-13 -25 0 -13 8 -13 10 2 10 9 0 20 -4 23 -10z m970 0 c3 -5 1 -10 -4 -10 -6
0 -11 5 -11 10 0 6 2 10 4 10 3 0 8 -4 11 -10z m-2235 -20 c0 -5 -4 -10 -10
-10 -5 0 -10 5 -10 10 0 6 5 10 10 10 6 0 10 -4 10 -10z m397 -12 c-3 -8 -6
-5 -6 6 -1 11 2 17 5 13 3 -3 4 -12 1 -19z m-2962 -25 c-4 -21 -8 -48 -8 -60
-1 -12 -9 -28 -18 -35 -9 -7 -21 -22 -27 -33 -6 -11 -12 -14 -12 -7 0 7 7 23
16 36 10 16 12 26 5 31 -6 3 -11 22 -11 42 0 27 -3 34 -15 29 -8 -3 -22 -9
-31 -12 -12 -5 -15 -2 -12 12 2 14 15 21 43 25 80 12 78 13 70 -28z m2525 23
c0 -11 -19 -15 -25 -6 -3 5 1 10 9 10 9 0 16 -2 16 -4z m-2670 -36 c-12 -23
-30 -27 -30 -6 0 8 8 17 18 19 9 3 18 5 20 6 1 0 -2 -8 -8 -19z m3087 7 c21 0
34 -6 37 -16 9 -29 23 -186 32 -351 3 -63 7 -134 9 -158 2 -37 -3 -50 -35 -90
-43 -55 -80 -89 -81 -76 -5 65 -5 85 -1 118 3 26 11 40 23 43 26 7 24 21 -5
34 -19 9 -24 19 -25 53 -3 62 -8 133 -15 216 l-7 75 42 20 c24 11 45 27 47 34
3 9 -3 8 -22 -4 -39 -26 -49 -14 -21 28 27 39 20 51 -10 17 -23 -26 -31 -25
-38 3 -3 12 -9 33 -13 46 -7 22 -5 23 22 16 16 -4 44 -8 61 -8z m2040 -24 c-3
-10 -5 -4 -5 12 0 17 2 24 5 18 2 -7 2 -21 0 -30z m-12 -36 c0 -26 -20 -25
-23 2 -3 16 1 22 10 19 7 -3 13 -12 13 -21z m-4691 -41 c-8 -32 -22 -42 -37
-26 -9 10 -9 14 1 17 6 3 12 13 12 22 0 23 11 34 22 23 5 -5 6 -21 2 -36z
m4521 14 c8 -12 -3 -50 -14 -50 -4 0 -13 11 -19 24 -8 19 -8 26 1 30 19 7 25
7 32 -4z m-1113 -65 c1 -36 2 -73 2 -82 1 -15 -7 -18 -49 -15 -55 3 -111 18
-120 33 -3 5 -1 18 5 29 7 13 7 20 0 20 -5 0 -10 5 -10 11 0 6 8 8 19 4 14 -4
21 0 26 14 5 16 9 18 19 9 7 -7 11 -20 8 -30 -2 -10 1 -18 7 -18 6 0 11 4 11
9 0 11 62 79 73 80 4 1 8 -28 9 -64z m1065 27 c19 -20 16 -55 -7 -70 -18 -11
-20 -10 -20 10 0 21 -1 21 -13 4 -11 -15 -17 -17 -35 -7 -28 15 -28 52 -1 77
17 15 22 16 29 4 7 -12 10 -11 16 5 6 14 9 16 12 5 3 -8 11 -21 19 -28z m188
-51 c3 -5 1 -12 -5 -16 -5 -3 -10 1 -10 9 0 18 6 21 15 7z m-1475 -40 c5 -20
5 -33 -2 -37 -17 -11 -28 11 -22 44 8 38 11 37 24 -7z m1195 12 c17 -25 17
-27 0 -39 -13 -10 -16 -21 -12 -43 4 -17 2 -33 -4 -37 -6 -3 -9 -15 -6 -25 3
-10 0 -20 -5 -21 -6 -2 -10 -16 -10 -31 0 -15 -4 -24 -8 -22 -5 3 -16 2 -25
-1 -13 -6 -14 -9 -3 -16 10 -7 10 -11 1 -15 -7 -2 -13 -11 -13 -18 0 -8 -4
-16 -9 -19 -5 -4 -8 9 -7 26 4 53 26 107 49 123 12 8 18 15 13 15 -5 0 -3 6 3
14 9 10 9 16 1 21 -6 4 -13 5 -14 4 -48 -65 -61 -83 -58 -86 6 -8 1 -23 -7
-19 -11 7 -2 46 10 46 5 0 9 7 9 15 0 8 -7 15 -15 15 -17 0 -20 25 -5 35 6 3
10 -1 10 -9 0 -9 5 -16 10 -16 6 0 10 13 10 29 0 18 12 42 32 65 17 20 33 36
34 36 1 0 10 -12 19 -27z m-2055 -30 c0 -25 -3 -43 -7 -40 -7 8 -12 69 -6 80
9 16 13 5 13 -40z m-1699 14 c-10 -9 -11 -8 -5 6 3 10 9 15 12 12 3 -3 0 -11
-7 -18z m1895 0 c8 3 14 2 12 -3 -1 -5 4 -20 11 -33 10 -18 10 -25 1 -31 -8
-5 -9 -65 0 -65 3 0 7 -62 10 -155 2 -52 7 -100 12 -106 5 -7 3 -18 -7 -28
-23 -22 -35 -20 -35 7 0 13 -5 28 -12 35 -13 13 -19 214 -7 234 4 7 2 23 -5
37 -8 14 -12 44 -11 66 4 55 6 62 11 48 3 -7 12 -9 20 -6z m604 -27 c0 -29 -4
-40 -15 -40 -22 0 -30 27 -17 56 17 36 32 29 32 -16z m-2406 18 c-5 -8 0 -9
14 -6 12 4 20 3 18 -1 -3 -4 25 -12 61 -19 74 -14 268 -74 330 -103 43 -19 50
-43 15 -52 -10 -2 -5 -3 10 -1 14 2 32 -3 38 -11 10 -12 10 -15 0 -15 -7 0
-10 -7 -6 -15 5 -14 -21 -21 -61 -16 -17 2 -16 -7 2 -26 20 -19 15 -48 -7 -47
-10 1 -14 -4 -11 -12 3 -8 0 -14 -6 -14 -6 0 -11 8 -11 19 0 10 -6 24 -13 30
-10 8 -19 4 -36 -19 -26 -36 -42 -39 -37 -7 2 12 8 21 13 20 5 -1 9 12 8 28
-2 34 -25 56 -37 36 -5 -8 -8 -6 -8 6 0 14 -5 16 -25 11 -20 -5 -25 -2 -25 12
0 26 50 74 77 74 37 0 27 14 -27 37 -52 22 -60 22 -35 -3 20 -21 19 -40 -1
-23 -14 11 -15 10 -12 -9 1 -11 0 -21 -4 -22 -29 -1 -38 1 -34 9 4 5 -3 7 -14
4 -11 -3 -20 -9 -20 -14 0 -23 -20 -6 -21 19 -2 23 -2 24 -6 5 -2 -13 -11 -23
-19 -23 -8 0 -14 -7 -14 -15 0 -8 5 -15 10 -15 6 0 10 5 10 10 0 6 5 10 11 10
5 0 7 -5 4 -11 -4 -6 -1 -9 6 -8 20 4 59 -11 59 -22 0 -5 -8 -18 -17 -28 -17
-20 -17 -20 -31 0 -13 19 -32 18 -32 -2 0 -6 4 -8 9 -5 9 6 24 -35 16 -43 -3
-2 -5 1 -5 7 0 7 -7 12 -15 12 -8 0 -15 7 -15 16 0 8 -4 13 -10 9 -5 -3 -7
-12 -4 -19 6 -16 -23 -30 -31 -15 -4 5 -11 7 -16 3 -6 -4 -6 -11 2 -20 20 -24
-7 -15 -33 11 -17 17 -32 23 -50 20 -29 -6 -64 26 -55 50 7 17 27 21 27 5 0
-5 5 -10 10 -10 5 0 9 3 8 8 -4 18 27 62 44 62 10 0 18 -4 18 -10 0 -5 8 -10
17 -10 14 0 14 3 -5 23 -16 18 -18 25 -9 38 24 33 117 47 117 18 0 -5 5 -9 10
-9 6 0 10 6 10 14 0 19 -47 34 -128 42 -57 6 -64 5 -52 -7 8 -9 26 -14 44 -11
30 3 30 2 12 -12 -11 -9 -23 -16 -28 -16 -4 0 -8 -7 -8 -16 0 -21 -39 -15 -54
8 -8 13 -8 23 2 38 16 27 15 35 -3 20 -10 -9 -15 -9 -15 -1 0 11 13 15 38 12
6 -1 12 5 12 14 0 8 7 15 16 15 9 0 12 -5 8 -12z m3751 -5 c-16 -39 -18 -56
-7 -49 7 4 12 4 12 -1 0 -4 -13 -14 -29 -21 -16 -7 -31 -22 -34 -32 -3 -11
-12 -20 -21 -20 -20 0 -21 16 -2 23 10 4 13 17 9 46 -5 34 -2 42 13 47 11 3
26 9 34 14 24 14 33 11 25 -7z m58 11 c9 -10 -12 -46 -24 -39 -14 9 -11 45 4
45 8 0 17 -3 20 -6z m-2556 -76 c-2 -13 -4 -3 -4 22 0 25 2 35 4 23 2 -13 2
-33 0 -45z m-2192 20 c14 -6 25 -15 25 -20 0 -4 11 -8 24 -8 13 0 29 -7 36
-15 7 -8 19 -15 26 -15 8 0 14 -10 14 -25 0 -14 4 -25 10 -25 5 0 7 8 3 18 -6
16 -5 16 13 -1 10 -10 28 -25 39 -33 19 -14 18 -15 -12 -11 -18 2 -33 0 -33
-5 0 -16 -40 -7 -52 12 -7 11 -18 20 -25 20 -15 0 -17 17 -3 22 6 2 6 8 0 18
-8 13 -10 12 -10 -2 0 -30 -24 -20 -63 26 -49 59 -47 69 8 44z m3175 -3 c0 -8
-4 -15 -10 -15 -5 0 -7 7 -4 15 4 8 8 15 10 15 2 0 4 -7 4 -15z m-3302 -24
c17 -17 32 -40 32 -52 0 -12 16 -39 35 -60 36 -40 42 -54 26 -63 -19 -12 -40
7 -93 82 -57 80 -71 106 -61 116 12 12 29 5 61 -23z m974 -3 c-28 -44 -131
-158 -143 -158 -5 0 6 14 26 31 19 17 56 60 82 95 50 68 68 85 35 32z m1695 1
c2 -17 -1 -18 -13 -8 -13 11 -10 20 11 29 1 0 1 -9 2 -21z m1223 7 c0 -8 -4
-17 -9 -21 -12 -7 -24 12 -16 25 9 15 25 12 25 -4z m1108 -8 c-4 -12 -17 -20
-83 -50 -16 -7 -32 -15 -35 -18 -11 -11 -90 -60 -90 -56 0 3 -12 -6 -26 -19
-15 -14 -30 -22 -35 -19 -14 8 -10 34 5 34 8 0 17 7 20 16 4 9 9 14 12 11 3
-2 17 6 31 19 14 13 29 21 34 18 5 -3 9 -1 9 4 0 11 121 67 153 71 5 1 7 -5 5
-11z m-1008 -28 c0 -5 -4 -10 -10 -10 -5 0 -10 5 -10 10 0 6 5 10 10 10 6 0
10 -4 10 -10z m-3870 -36 c22 -20 40 -45 40 -55 0 -26 -5 -24 -60 16 -47 35
-64 57 -53 69 14 13 35 4 73 -30z m2569 -102 c1 -23 -3 -32 -11 -30 -14 5 -22
132 -11 158 7 15 20 -64 22 -128z m-2733 64 c-3 -11 -6 -31 -6 -43 0 -28 -25
-30 -40 -4 -5 11 -10 33 -10 49 0 26 2 28 31 24 26 -4 30 -8 25 -26z m1664
-16 c0 -3 -10 -7 -22 -7 -18 -2 -20 0 -8 7 15 10 12 11 -22 14 -14 1 -28 16
-28 29 0 5 18 -2 40 -14 22 -13 40 -25 40 -29z m-690 -33 c0 -7 -9 -18 -20
-25 -17 -10 -20 -10 -20 4 0 8 5 12 10 9 6 -3 10 1 10 9 0 9 5 16 10 16 6 0
10 -6 10 -13z m390 -26 c-4 -48 0 -61 16 -61 9 0 14 -6 11 -12 -2 -7 -10 -12
-16 -10 -6 1 -11 -5 -11 -13 0 -8 7 -15 15 -15 8 0 15 4 15 10 0 5 7 7 15 4 8
-4 15 -12 15 -20 0 -8 5 -14 10 -14 6 0 10 4 10 10 0 5 8 6 17 3 12 -5 15 -2
10 10 -3 9 -4 17 -1 17 10 0 34 -28 34 -40 0 -6 6 -8 13 -4 6 4 8 3 4 -1 -11
-12 -37 -15 -37 -4 0 5 -4 9 -10 9 -5 0 -10 -4 -10 -10 0 -5 19 -14 43 -20 57
-14 70 -23 78 -51 6 -21 7 -20 8 9 1 43 -32 92 -58 85 -10 -3 -22 0 -26 7 -9
14 24 40 42 33 8 -3 13 -2 12 3 -4 23 4 37 36 69 41 42 75 45 101 10 10 -14
26 -25 36 -25 9 0 20 -5 24 -11 3 -6 20 -17 37 -24 29 -12 30 -13 8 -20 -18
-5 -22 -13 -18 -31 2 -14 -1 -27 -7 -31 -6 -3 -8 -3 -4 2 11 12 -42 36 -64 30
-19 -7 -26 -27 -7 -22 19 4 21 -21 2 -26 -53 -15 -73 -17 -73 -7 0 5 6 9 13 8
8 -2 11 8 10 30 -1 36 -13 55 -20 34 -3 -6 -9 -9 -15 -6 -6 4 -5 10 3 15 21
13 -4 32 -31 24 -14 -4 -18 -10 -12 -14 7 -4 11 -20 11 -36 -1 -68 20 -116 35
-82 3 6 4 3 1 -8 -4 -15 3 -24 25 -33 16 -8 33 -11 38 -8 5 3 15 -6 22 -20 12
-22 67 -64 83 -64 4 0 2 12 -4 26 -17 46 -1 38 21 -10 23 -51 40 -60 40 -20 0
14 4 23 10 19 6 -3 6 -15 0 -30 -8 -20 -4 -27 28 -51 20 -16 39 -32 40 -36 7
-15 24 -8 18 8 -3 8 -2 12 4 9 6 -3 14 5 19 18 13 35 26 40 45 18 16 -18 16
-20 -5 -40 -24 -22 -45 -29 -34 -11 3 6 2 10 -3 10 -23 0 -20 -31 4 -47 62
-44 83 -66 98 -104 9 -23 15 -44 12 -46 -8 -8 -26 7 -26 22 0 9 -6 12 -15 9
-9 -4 -18 2 -23 16 -4 12 -11 21 -15 21 -21 -2 -26 1 -32 19 -3 11 -14 20 -23
20 -10 0 -23 9 -30 20 -7 11 -19 20 -27 20 -8 0 -19 9 -25 20 -6 12 -16 17
-26 13 -10 -4 -17 2 -21 16 -3 12 -10 21 -17 20 -25 -3 -36 2 -36 16 0 9 -9
15 -25 15 -17 0 -29 8 -37 25 -9 19 -14 22 -29 15 -14 -8 -21 -5 -32 10 -8 12
-18 20 -23 19 -22 -4 -34 2 -34 16 0 16 -9 18 -47 15 -17 -1 -23 4 -23 19 0
21 -14 28 -24 12 -10 -16 -46 0 -46 20 0 11 -4 19 -10 19 -5 0 -10 -4 -10 -10
0 -16 -40 -12 -46 5 -4 10 -15 12 -35 8 -28 -5 -35 2 -29 32 1 5 -7 2 -17 -6
-21 -18 -53 -14 -53 7 0 17 -12 18 -28 2 -9 -9 -16 -9 -28 4 -13 13 -23 14
-42 7 -20 -8 -28 -6 -34 6 -7 12 -13 13 -30 4 -18 -10 -24 -8 -39 12 -10 13
-19 18 -19 12 0 -15 -46 -17 -55 -3 -3 6 -17 7 -30 4 -16 -4 -26 0 -33 11 -6
12 -11 14 -16 6 -9 -14 -46 -15 -46 -1 0 6 -5 10 -11 10 -5 0 -7 -5 -3 -12 4
-6 3 -8 -3 -5 -32 20 -517 29 -710 13 -92 -7 -133 -3 -133 14 0 22 159 39 385
41 11 0 23 5 27 12 6 9 8 9 8 0 0 -7 6 -13 14 -13 8 0 17 6 19 13 4 9 8 8 17
-3 6 -8 13 -11 16 -5 2 6 47 9 116 6 176 -5 192 -5 213 3 16 6 17 6 5 -3 -18
-13 42 -15 141 -4 48 5 58 8 39 13 -21 6 -22 8 -8 15 11 4 28 0 45 -13 15 -10
53 -25 83 -32 30 -7 79 -19 109 -26 30 -7 58 -11 63 -8 4 3 15 -2 24 -10 17
-17 49 -22 39 -6 -3 6 -1 10 4 10 14 0 13 11 -3 33 -11 14 -18 16 -41 7 -22
-8 -30 -8 -37 2 -12 20 -10 24 16 36 17 8 27 7 36 -1 10 -10 10 -8 1 10 -15
30 -15 31 15 25 20 -4 25 -10 24 -31z m2630 25 c0 -2 3 -11 6 -20 9 -23 -9
-20 -24 4 -10 17 -10 20 3 20 8 0 15 -2 15 -4z m770 -22 c0 -8 -7 -14 -15 -14
-15 0 -21 21 -9 33 10 9 24 -2 24 -19z m-4016 2 c-10 -8 -21 -12 -24 -10 -5 6
21 24 34 24 6 0 1 -6 -10 -14z m984 -11 c-3 -3 -9 2 -12 12 -6 14 -5 15 5 6 7
-7 10 -15 7 -18z m-1088 5 c0 -5 -4 -10 -10 -10 -5 0 -10 5 -10 10 0 6 5 10
10 10 6 0 10 -4 10 -10z m60 0 c0 -5 -10 -10 -22 -9 -22 0 -22 1 -3 9 11 5 21
9 23 9 1 1 2 -3 2 -9z m150 6 c0 -3 -4 -8 -10 -11 -5 -3 -10 -1 -10 4 0 6 5
11 10 11 6 0 10 -2 10 -4z m53 -13 c-7 -2 -19 -2 -25 0 -7 3 -2 5 12 5 14 0
19 -2 13 -5z m2254 -15 c-3 -8 -6 -5 -6 6 -1 11 2 17 5 13 3 -3 4 -12 1 -19z
m1343 -72 c12 -34 -6 -110 -24 -98 -6 4 -15 7 -21 7 -19 0 -35 52 -35 117 l0
67 35 -33 c19 -18 39 -45 45 -60z m225 65 c-3 -6 -11 -9 -16 -6 -5 4 -9 -3 -9
-14 0 -12 -4 -21 -10 -21 -5 0 -10 -7 -10 -15 0 -8 -4 -15 -10 -15 -5 0 -10 9
-10 20 0 11 4 20 8 20 4 0 16 14 26 31 12 21 22 27 28 21 6 -6 7 -15 3 -21z
m-3500 -1 c3 -5 1 -10 -4 -10 -6 0 -11 5 -11 10 0 6 2 10 4 10 3 0 8 -4 11
-10z m1140 -157 c5 -28 4 -43 -3 -43 -10 0 -21 61 -23 135 -2 68 3 73 11 10 4
-33 11 -79 15 -102z m369 111 c10 -77 7 -114 -9 -120 -8 -4 -15 -12 -15 -20 0
-8 -4 -14 -9 -14 -5 0 -6 20 -3 45 3 28 0 50 -8 60 -7 9 -10 18 -6 22 3 3 6 1
6 -5 0 -7 4 -12 8 -12 9 0 13 16 14 63 1 43 15 31 22 -19z m426 32 c0 -3 -4
-8 -10 -11 -5 -3 -10 -1 -10 4 0 6 5 11 10 11 6 0 10 -2 10 -4z m721 -6 c-16
-9 -10 -32 12 -48 21 -16 23 -52 2 -52 -8 0 -15 5 -15 11 0 5 5 7 12 3 7 -5 8
-3 3 6 -6 10 -11 9 -21 -5 -9 -12 -10 -22 -4 -30 13 -16 -4 -37 -23 -29 -14 5
-17 20 -17 78 l0 71 31 1 c17 1 26 -2 20 -6z m-2401 -9 c0 -12 -20 -25 -27
-18 -7 7 6 27 18 27 5 0 9 -4 9 -9z m1043 -18 c-19 -29 -99 -113 -109 -113
-15 0 67 109 87 115 11 4 19 11 19 16 0 5 5 9 10 9 6 0 3 -12 -7 -27z m-686
-15 c-3 -8 -6 -5 -6 6 -1 11 2 17 5 13 3 -3 4 -12 1 -19z m1320 -10 c-3 -8 -6
-5 -6 6 -1 11 2 17 5 13 3 -3 4 -12 1 -19z m60 0 c-3 -8 -6 -5 -6 6 -1 11 2
17 5 13 3 -3 4 -12 1 -19z m-673 -13 c-4 -8 -11 -15 -16 -15 -6 0 -5 6 2 15 7
8 14 15 16 15 2 0 1 -7 -2 -15z m719 -5 c-3 -11 -7 -20 -9 -20 -2 0 -4 9 -4
20 0 11 4 20 9 20 5 0 7 -9 4 -20z m-1643 -2 c0 -4 -7 -8 -15 -8 -8 0 -15 4
-15 8 0 5 7 9 15 9 8 0 15 -4 15 -9z m275 -38 c44 -51 77 -112 66 -123 -7 -7
-14 -7 -24 1 -8 7 -17 9 -20 5 -4 -3 -7 3 -7 15 0 12 -4 22 -10 22 -5 0 -10
-15 -10 -33 0 -27 5 -35 30 -44 37 -14 38 -34 3 -50 -33 -16 -39 -10 -24 23
10 23 9 26 -4 21 -8 -4 -15 -1 -15 6 0 7 -9 20 -20 30 -16 14 -18 21 -10 36
16 31 12 43 -12 36 -16 -6 -20 -4 -15 8 4 11 2 14 -9 10 -8 -3 -17 -16 -20
-29 -3 -13 -11 -24 -16 -24 -6 0 -7 9 -3 23 4 12 7 29 7 38 -1 16 64 59 82 56
6 -1 20 -13 31 -27z m1845 -37 c2 -2 -1 -7 -8 -11 -6 -5 -11 -19 -10 -32 2
-52 -1 -55 -33 -24 -17 16 -49 50 -70 76 l-40 47 78 -26 c43 -14 80 -28 83
-30z m-1996 41 c8 -3 12 -12 9 -21 -4 -10 -2 -14 5 -9 6 3 14 1 18 -5 5 -8 3
-9 -5 -5 -8 5 -11 2 -9 -9 4 -21 -27 -44 -41 -30 -14 15 -25 59 -13 51 6 -3
13 -2 17 4 3 5 -2 10 -12 10 -15 0 -16 2 -3 10 18 12 15 11 34 4z m1396 -4 c0
-5 -5 -10 -11 -10 -5 0 -7 5 -4 10 3 6 8 10 11 10 2 0 4 -4 4 -10z m-659 -23
c-10 -9 -11 -8 -5 6 3 10 9 15 12 12 3 -3 0 -11 -7 -18z m-801 -11 c0 -8 -4
-17 -9 -21 -6 -3 -9 4 -8 15 1 23 17 28 17 6z m1556 -43 c-10 -11 -25 18 -18
35 4 13 8 11 15 -6 6 -12 7 -25 3 -29z m1074 33 c0 -2 3 -13 6 -23 5 -15 4
-15 -5 -3 -8 11 -11 12 -11 2 0 -7 -4 -10 -10 -7 -15 10 -12 35 5 35 8 0 15
-2 15 -4z m-2894 -51 c131 -44 275 -109 251 -113 -14 -3 -16 -10 -11 -40 3
-20 11 -41 16 -47 6 -6 7 -3 3 10 -6 18 -6 19 5 2 13 -20 -2 -47 -26 -47 -8 0
-14 -4 -14 -8 0 -12 -84 -32 -133 -32 -46 0 -72 -12 -72 -32 0 -22 -32 -20
-55 4 -18 19 -19 24 -6 26 37 8 2 19 -50 16 -43 -2 -55 0 -51 10 6 15 -30 35
-53 30 -55 -12 -94 -24 -99 -31 -6 -8 -14 -9 -48 -5 -18 3 -16 67 2 82 8 7 15
18 15 25 0 7 7 18 15 25 14 11 13 14 -2 25 -32 23 -23 53 24 81 24 14 56 27
73 29 16 2 37 8 47 14 29 17 55 13 169 -24z m414 11 c0 -3 -4 -8 -10 -11 -5
-3 -10 -1 -10 4 0 6 5 11 10 11 6 0 10 -2 10 -4z m1353 -2 c3 -3 3 -12 0 -19
-6 -17 -33 -8 -33 11 0 14 21 19 33 8z m-1086 -56 c-2 -13 -4 -5 -4 17 -1 22
1 32 4 23 2 -10 2 -28 0 -40z m338 42 c3 -5 0 -19 -8 -30 -11 -16 -16 -18 -31
-7 -11 8 -15 19 -10 30 7 18 39 23 49 7z m792 -37 c-3 -10 -5 -4 -5 12 0 17 2
24 5 18 2 -7 2 -21 0 -30z m-1391 0 c-10 -10 -19 5 -10 18 6 11 8 11 12 0 2
-7 1 -15 -2 -18z m1154 -34 c-14 -12 -33 -19 -47 -16 -18 3 -23 0 -23 -17 0
-11 -9 -32 -19 -45 l-18 -23 -12 30 c-10 24 -10 34 1 51 7 12 16 21 19 21 3 0
23 14 44 30 l39 31 20 -21 21 -21 -25 -20z m209 -11 l-1 -63 -9 50 c-8 47 -6
75 6 75 3 0 4 -28 4 -62z m621 -22 c0 -2 -9 -35 -21 -72 -22 -74 -35 -96 -47
-78 -4 5 -42 36 -84 68 -43 32 -78 62 -78 66 0 5 33 10 73 12 39 2 91 4 115 6
23 1 42 1 42 -2z m580 -13 c0 -16 2 -16 11 -3 9 13 10 13 6 0 -6 -24 -36 -25
-34 -1 2 25 17 28 17 4z m-1607 -60 c-6 -35 -27 -44 -37 -17 -11 28 -6 53 11
63 23 13 32 -4 26 -46z m1692 -5 c-6 -5 -6 -8 0 -8 6 0 -3 -11 -19 -25 -32
-28 -51 -33 -43 -11 3 8 11 32 18 55 l12 41 21 -23 c13 -14 18 -25 11 -29z
m-2397 -11 c4 -31 -5 -35 -24 -9 -19 24 -17 44 4 40 10 -2 18 -14 20 -31z
m1142 29 c0 -2 -8 -10 -17 -17 -16 -13 -17 -12 -4 4 13 16 21 21 21 13z m-853
-58 c-3 -7 -5 -2 -5 12 0 14 2 19 5 13 2 -7 2 -19 0 -25z m623 -28 c11 -20 6
-40 -8 -40 -19 1 -42 29 -36 44 8 22 31 20 44 -4z m45 9 c12 -19 -5 -23 -22
-6 -16 16 -16 17 -1 17 9 0 20 -5 23 -11z m1320 5 c10 -4 13 -9 6 -13 -6 -4
10 -14 35 -24 25 -9 42 -12 38 -5 -4 6 -1 9 7 6 8 -3 14 -9 14 -15 0 -5 14
-24 32 -41 17 -18 35 -41 38 -52 8 -25 -21 -80 -43 -80 -10 0 -40 20 -67 45
-36 33 -44 44 -27 40 28 -8 28 -4 -4 26 -22 21 -24 21 -19 4 7 -20 7 -20 -9 0
-9 11 -24 36 -34 57 -19 42 -37 52 -22 13 6 -16 6 -25 0 -25 -12 0 -24 45 -15
59 7 12 44 14 70 5z m255 -12 c19 4 22 -15 6 -37 -11 -16 -17 -17 -29 -7 -12
10 -16 9 -21 -4 -9 -24 -7 -46 4 -39 18 11 32 -5 19 -21 -10 -13 -16 -11 -41
12 -30 30 -35 44 -15 44 7 0 21 17 31 37 12 25 20 33 25 24 4 -6 14 -11 21 -9z
m-2533 -14 c-3 -8 -6 -5 -6 6 -1 11 2 17 5 13 3 -3 4 -12 1 -19z m-797 -18
l35 -29 -28 -10 c-44 -17 -134 -14 -141 4 -3 8 -12 15 -21 15 -15 0 -21 31 -8
43 3 4 34 7 67 7 52 0 66 -5 96 -30z m2098 21 c10 -1 19 -39 10 -42 -2 0 -25
-3 -53 -5 -27 -3 -54 -9 -59 -14 -13 -13 -36 0 -29 16 3 8 0 21 -6 28 -10 12
-8 15 11 18 20 3 86 2 126 -1z m-830 -24 c2 -11 -3 -17 -17 -17 -23 0 -35 15
-26 31 10 15 39 6 43 -14z m662 9 c0 -2 3 -13 6 -23 5 -15 4 -15 -5 -3 -9 13
-11 13 -11 -2 0 -14 -8 -18 -32 -18 -79 1 -64 47 15 49 15 1 27 -1 27 -3z
m841 -9 c22 -17 59 -125 39 -112 -5 3 -11 1 -15 -5 -4 -6 -11 -5 -20 4 -10 10
-12 22 -6 44 7 25 5 34 -10 48 -31 28 -21 47 12 21z m-1054 -25 c8 -5 7 -12
-4 -27 -11 -14 -17 -16 -20 -7 -3 6 -9 10 -14 6 -5 -3 -9 1 -9 10 0 8 6 17 13
19 17 8 21 8 34 -1z m778 -22 c3 -5 -1 -10 -9 -10 -9 0 -16 5 -16 10 0 6 4 10
9 10 6 0 13 -4 16 -10z m-995 -27 c0 -6 -14 -51 -31 -98 -24 -65 -35 -85 -48
-83 -16 4 -16 8 -6 63 5 27 4 28 -7 12 -7 -10 -19 -26 -26 -35 -26 -33 -1 31
29 75 16 23 29 45 29 49 0 3 -21 4 -47 1 l-48 -5 32 16 c38 20 123 23 123 5z
m-193 -9 c2 -5 -13 -17 -32 -26 -37 -17 -46 -7 -19 23 16 18 46 19 51 3z m780
-20 c3 -8 0 -21 -7 -27 -10 -9 -11 -9 -6 1 4 7 -8 4 -29 -8 -61 -34 -103 -23
-86 23 10 25 15 27 66 27 41 0 57 -4 62 -16z m-156 -43 c-9 -27 -19 -47 -23
-44 -5 2 -8 0 -8 -6 0 -8 -67 4 -78 13 -1 2 3 17 9 35 12 35 36 49 85 50 l31
1 -16 -49z m-917 23 c23 -22 1 -39 -49 -39 -48 0 -64 29 -18 33 15 1 30 7 31
12 5 14 18 12 36 -6z m1359 1 c-3 -9 -8 -14 -10 -11 -3 3 -2 9 2 15 9 16 15
13 8 -4z m60 -18 c4 3 7 1 7 -5 0 -17 -16 -15 -31 6 -12 15 -12 16 2 5 9 -7
19 -10 22 -6z m-286 -3 c-3 -3 -12 -4 -19 -1 -8 3 -5 6 6 6 11 1 17 -2 13 -5z
m-1276 -46 c8 -15 8 -18 0 -14 -6 4 -16 16 -22 28 -8 15 -8 18 0 14 6 -4 16
-16 22 -28z m750 25 c7 -42 5 -50 -12 -46 -21 6 -23 53 -2 53 7 0 14 -3 14 -7z
m359 -100 c-17 -26 -41 -51 -53 -56 -20 -8 -21 -9 -4 -18 9 -6 17 -13 17 -18
0 -9 -178 -36 -187 -27 -3 3 -1 6 5 6 7 0 12 6 12 13 0 7 9 18 20 25 15 9 19
19 14 38 -4 13 -2 24 2 23 13 -3 44 12 44 21 0 5 -10 6 -22 3 -14 -4 -20 -2
-15 3 10 11 108 31 159 33 l38 1 -30 -47z m46 -35 c-6 -15 -14 -28 -19 -28 -4
0 -5 -4 -2 -10 3 -6 -5 -10 -19 -10 -20 0 -24 4 -19 18 10 26 26 39 42 34 11
-4 12 2 7 22 -6 23 -5 25 7 15 11 -10 11 -20 3 -41z m-296 32 c0 -5 -7 -10
-16 -10 -8 0 -12 5 -9 10 3 6 10 10 16 10 5 0 9 -4 9 -10z m-179 -25 c25 -13
28 -19 19 -36 -6 -11 -15 -17 -21 -14 -5 4 -9 1 -9 -5 0 -6 -4 -8 -10 -5 -5 3
-10 -2 -10 -11 0 -32 -19 -1 -26 44 -8 48 4 54 57 27z m229 -20 c0 -14 -4 -25
-10 -25 -8 0 -8 23 -1 48 4 12 11 -3 11 -23z m1201 -3 c-22 -41 -59 -60 -144
-71 -186 -25 -699 -64 -1080 -82 -245 -12 -259 -12 -290 6 -39 22 -77 55 -77
67 0 5 15 -2 33 -16 66 -50 90 -54 257 -45 85 4 252 13 370 19 118 6 253 15
300 20 47 5 185 19 308 30 122 11 232 25 245 29 12 5 35 23 51 40 32 33 44 35
27 3z m-886 -33 c10 -15 -1 -23 -20 -15 -9 3 -13 10 -10 16 8 13 22 13 30 -1z
m929 -5 c16 -6 22 -39 8 -48 -13 -8 -45 22 -39 39 7 17 9 17 31 9z m-794 -44
c-8 -5 -31 -9 -50 -9 l-35 1 30 8 c17 4 39 8 50 9 16 1 17 -1 5 -9z m736 -49
c-12 -11 -18 -12 -30 -2 -13 11 -13 15 2 32 16 18 18 18 30 2 10 -14 10 -20
-2 -32z m-92 3 c25 -9 19 -24 -9 -24 -24 0 -32 10 -18 23 8 8 8 8 27 1z m-164
-19 c17 -20 5 -33 -25 -27 -29 5 -30 7 -12 27 16 18 22 18 37 0z m99 -1 c3 -3
0 -9 -6 -15 -8 -8 -17 -8 -30 0 -14 7 -24 7 -34 -2 -7 -7 -5 -2 5 11 17 20 46
23 65 6z m-1445 -9 c-4 -8 -12 -15 -20 -15 -20 0 -17 18 4 23 9 3 18 5 19 6 1
0 0 -6 -3 -14z m1186 -19 c0 -7 -12 -13 -30 -13 -34 0 -34 0 -18 26 9 15 16
17 30 10 10 -5 18 -16 18 -23z m80 14 c9 -18 7 -19 -25 -18 -40 1 -42 5 -17
24 23 18 30 17 42 -6z m-265 -20 c9 -15 -4 -32 -18 -23 -7 4 -20 6 -29 5 -10
-2 -18 2 -18 7 0 6 7 11 16 11 10 0 14 5 10 15 -4 13 -2 13 14 5 10 -5 22 -15
25 -20z m93 8 c20 -17 14 -26 -13 -20 -14 2 -30 13 -36 24 -10 18 -8 19 13 13
12 -4 29 -12 36 -17z m-184 -7 c21 -23 12 -49 -10 -30 -7 6 -21 9 -29 5 -8 -3
-15 -1 -15 4 0 6 7 10 15 10 9 0 12 6 9 15 -9 21 10 19 30 -4z m-154 -32 c0
-14 -18 -20 -25 -8 -4 5 -13 8 -21 5 -8 -3 -14 -1 -14 4 0 6 5 10 11 10 6 0 9
7 5 15 -5 13 -2 13 19 -1 14 -9 25 -20 25 -25z m74 18 c12 -19 3 -32 -16 -21
-7 5 -21 7 -30 6 -10 -2 -18 2 -18 7 0 6 7 11 15 11 8 0 15 5 15 11 0 15 21 6
34 -14z m-784 -3 c0 -12 7 -15 25 -12 14 3 28 1 31 -3 3 -5 14 -9 24 -9 10 0
22 -5 25 -11 13 -20 -5 -22 -39 -4 -29 16 -37 17 -50 6 -13 -11 -16 -11 -16 3
0 9 -7 16 -15 16 -8 0 -15 5 -15 12 0 6 -7 3 -15 -8 -12 -15 -14 -16 -15 -3 0
22 9 29 37 29 14 0 23 -6 23 -16z m990 12 c0 -3 -4 -8 -10 -11 -5 -3 -10 -1
-10 4 0 6 5 11 10 11 6 0 10 -2 10 -4z m-540 -37 c0 -4 -5 -11 -10 -14 -13 -8
-40 13 -40 31 0 11 5 11 25 2 14 -6 25 -15 25 -19z m80 -8 c0 -13 -2 -13 -9
-2 -6 9 -18 12 -37 7 l-29 -7 25 20 c27 21 50 13 50 -18z m78 27 c7 -7 12 -19
12 -27 0 -12 -3 -12 -12 -3 -7 7 -23 12 -36 12 -21 0 -22 2 -12 15 15 18 32
19 48 3z m-260 -10 c16 -16 15 -28 0 -28 -22 0 -41 17 -34 29 9 14 19 14 34
-1z m-172 -12 c22 -17 13 -32 -13 -21 -10 5 -21 7 -25 7 -10 -2 -10 12 -1 21
9 10 17 9 39 -7z m78 8 c16 -6 23 -34 8 -34 -10 0 -32 22 -32 32 0 10 3 10 24
2z m-34 -8 c0 -3 -4 -8 -10 -11 -5 -3 -10 -1 -10 4 0 6 5 11 10 11 6 0 10 -2
10 -4z m1590 -505 c0 -31 -72 -72 -86 -50 -8 13 56 68 72 62 8 -3 14 -8 14
-12z m-1755 -189 c-9 -9 -16 5 -21 44 l-4 39 15 -39 c8 -22 13 -42 10 -44z
m-4231 -57 c-4 -8 -8 -15 -10 -15 -2 0 -4 7 -4 15 0 8 4 15 10 15 5 0 7 -7 4
-15z"/>
<path d="M6095 6590 c3 -5 11 -10 16 -10 6 0 7 5 4 10 -3 6 -11 10 -16 10 -6
0 -7 -4 -4 -10z"/>
<path d="M6175 6590 c3 -5 10 -10 16 -10 5 0 9 5 9 10 0 6 -7 10 -16 10 -8 0
-12 -4 -9 -10z"/>
<path d="M6250 6590 c0 -5 5 -10 10 -10 6 0 10 5 10 10 0 6 -4 10 -10 10 -5 0
-10 -4 -10 -10z"/>
<path d="M5850 6581 c0 -5 6 -11 12 -13 7 -3 13 -15 13 -29 0 -43 29 -29 31
16 1 22 -1 32 -3 23 -5 -18 -23 -25 -23 -9 0 5 -7 11 -15 15 -8 3 -15 1 -15
-3z"/>
<path d="M5920 6586 c0 -2 7 -6 15 -10 8 -3 15 -1 15 4 0 6 -7 10 -15 10 -8 0
-15 -2 -15 -4z"/>
<path d="M5968 6568 c-25 -31 -22 -48 7 -48 23 0 24 2 15 21 -9 15 -8 24 1 35
6 8 8 14 3 14 -5 0 -17 -10 -26 -22z"/>
<path d="M6024 6574 c9 -8 16 -22 16 -30 0 -8 9 -14 21 -14 15 0 19 4 15 16
-3 9 -6 17 -6 20 0 2 -7 1 -15 -2 -9 -4 -15 0 -15 10 0 9 -7 16 -16 16 -14 0
-14 -1 0 -16z"/>
<path d="M6132 6565 c-16 -35 -16 -35 16 -35 19 0 23 3 13 9 -8 5 -12 18 -8
30 7 29 -7 26 -21 -4z"/>
<path d="M6216 6573 c-3 -10 -9 -24 -12 -30 -4 -9 3 -13 20 -13 30 0 30 0 12
34 -12 23 -14 24 -20 9z"/>
<path d="M5655 6570 c-3 -5 -2 -10 4 -10 5 0 13 5 16 10 3 6 2 10 -4 10 -5 0
-13 -4 -16 -10z"/>
<path d="M5690 6572 c0 -6 4 -12 10 -12 5 0 7 -13 4 -30 -5 -24 -3 -30 10 -30
29 0 30 30 2 58 -14 15 -26 21 -26 14z"/>
<path d="M5730 6570 c0 -5 5 -10 10 -10 6 0 10 5 10 10 0 6 -4 10 -10 10 -5 0
-10 -4 -10 -10z"/>
<path d="M5773 6569 c13 -8 17 -18 13 -35 -6 -21 -3 -24 19 -24 23 0 25 2 14
22 -17 31 -35 48 -51 48 -8 0 -6 -5 5 -11z"/>
<path d="M5815 6570 c4 -6 11 -8 16 -5 14 9 11 15 -7 15 -8 0 -12 -5 -9 -10z"/>
<path d="M5485 6559 c-4 -5 -18 -6 -33 -3 -17 4 -23 2 -14 -3 7 -5 11 -20 10
-33 -2 -17 3 -25 16 -28 15 -3 18 0 12 21 -4 16 -1 29 10 38 23 19 50 -1 46
-35 -3 -18 1 -26 13 -26 20 0 30 26 16 43 -7 9 -7 17 -1 23 6 6 -4 10 -30 11
-22 1 -42 -2 -45 -8z"/>
<path d="M5613 6559 c10 -6 14 -15 10 -22 -14 -23 -11 -37 8 -37 12 0 19 7 19
18 -1 23 -24 52 -41 52 -10 -1 -8 -4 4 -11z"/>
<path d="M5235 6550 c-3 -5 -1 -10 4 -10 6 0 11 5 11 10 0 6 -2 10 -4 10 -3 0
-8 -4 -11 -10z"/>
<path d="M5273 6520 c-2 -34 1 -40 19 -40 17 0 19 4 13 28 -3 15 -12 33 -19
40 -9 9 -12 4 -13 -28z"/>
<path d="M5360 6545 c5 -6 7 -21 4 -32 -5 -17 -2 -22 14 -20 16 1 18 5 11 24
-6 17 -4 25 9 32 13 8 10 10 -15 9 -24 -1 -30 -4 -23 -13z"/>
<path d="M6287 6554 c-13 -13 -7 -24 14 -24 11 0 19 5 17 12 -5 14 -22 21 -31
12z"/>
<path d="M6375 6550 c-3 -4 -2 -16 1 -27 5 -17 4 -16 -10 1 -13 16 -16 17 -16
4 0 -8 6 -20 13 -26 16 -14 42 1 32 18 -4 7 -2 16 5 20 8 5 8 9 -4 13 -8 3
-18 2 -21 -3z"/>
<path d="M5178 6540 c19 -8 21 -13 12 -29 -14 -27 -13 -28 14 -28 23 0 23 1
11 31 -9 21 -21 32 -37 33 l-23 3 23 -10z"/>
<path d="M5105 6527 c12 -10 14 -16 7 -21 -18 -11 -14 -23 8 -29 15 -4 19 0
17 17 -2 25 -20 46 -38 46 -7 0 -5 -6 6 -13z"/>
<path d="M4940 6520 c-17 -4 -21 -8 -12 -14 7 -4 10 -11 7 -16 -3 -4 1 -13 9
-19 10 -9 15 -8 20 4 3 8 0 15 -6 15 -7 0 -6 5 2 15 16 20 11 23 -20 15z"/>
<path d="M5010 6520 c0 -5 5 -10 10 -10 6 0 10 5 10 10 0 6 -4 10 -10 10 -5 0
-10 -4 -10 -10z"/>
<path d="M6440 6512 c0 -12 -9 -22 -21 -25 -18 -5 -19 -8 -8 -20 9 -9 15 -11
18 -5 2 6 11 1 21 -12 17 -22 40 -21 40 2 0 6 -3 8 -7 5 -12 -13 -33 15 -27
38 3 13 1 26 -5 29 -7 4 -11 -1 -11 -12z"/>
<path d="M4856 6511 c-27 -6 -50 -31 -28 -31 6 0 12 5 14 12 2 6 10 8 17 4 8
-6 9 -11 1 -21 -6 -7 -8 -20 -4 -29 3 -9 3 -24 -1 -33 -8 -18 -7 -64 1 -72 3
-3 23 14 47 36 23 23 51 44 62 47 11 2 -6 4 -39 2 l-58 -3 5 40 c3 22 11 44
19 48 14 10 7 10 -36 0z m24 -142 c0 -5 -4 -9 -8 -9 -5 0 -9 7 -9 15 0 8 4 12
9 9 4 -3 8 -9 8 -15z"/>
<path d="M6410 6510 c0 -5 5 -10 11 -10 5 0 7 5 4 10 -3 6 -8 10 -11 10 -2 0
-4 -4 -4 -10z"/>
<path d="M5020 6480 c0 -24 15 -27 24 -4 9 22 8 24 -9 24 -8 0 -15 -9 -15 -20z"/>
<path d="M4775 6471 c-3 -5 2 -16 10 -24 11 -12 12 -17 2 -20 -7 -3 -5 -6 6
-6 9 -1 17 6 17 14 0 8 -5 15 -11 15 -6 0 -9 7 -5 15 6 16 -9 21 -19 6z"/>
<path d="M5038 6433 c6 -2 18 -2 25 0 6 3 1 5 -13 5 -14 0 -19 -2 -12 -5z"/>
<path d="M6567 6173 c-4 -3 -7 -11 -7 -17 0 -6 5 -5 12 2 6 6 9 14 7 17 -3 3
-9 2 -12 -2z"/>
<path d="M4453 6025 c-14 -12 -15 -16 -5 -24 20 -12 11 -44 -16 -56 -27 -12
-28 -17 -1 -34 19 -11 21 -11 16 2 -4 11 0 13 13 10 17 -4 18 -1 14 29 -4 24
-1 38 10 47 9 7 16 17 16 21 0 16 -29 18 -47 5z"/>
<path d="M4430 5791 c0 -5 -9 -13 -20 -16 -11 -3 -20 -10 -20 -15 0 -11 36
-19 60 -13 11 3 20 10 20 17 0 6 -9 17 -20 24 -11 7 -20 8 -20 3z"/>
<path d="M4312 5705 c0 -16 2 -22 5 -12 2 9 2 23 0 30 -3 6 -5 -1 -5 -18z"/>
<path d="M4426 5695 c-3 -8 -12 -15 -21 -15 -8 0 -15 -5 -15 -12 0 -6 3 -8 7
-5 3 4 13 1 21 -6 12 -10 16 -9 20 1 3 10 7 10 18 1 11 -9 14 -8 14 8 0 19
-17 43 -31 43 -4 0 -9 -7 -13 -15z"/>
<path d="M4322 5650 c0 -14 2 -19 5 -12 2 6 2 18 0 25 -3 6 -5 1 -5 -13z"/>
<path d="M4461 5617 c-1 -10 -6 -15 -11 -12 -6 4 -17 1 -25 -5 -8 -6 -19 -9
-25 -5 -5 3 -10 2 -10 -2 0 -5 13 -14 30 -20 41 -16 69 4 53 38 -9 19 -12 20
-12 6z"/>
<path d="M4445 5528 c-4 -10 -17 -18 -28 -18 -37 0 -1 -24 38 -25 26 -1 36 3
41 17 7 24 -4 37 -15 19 -7 -11 -11 -9 -19 5 -10 18 -11 18 -17 2z"/>
<path d="M4531 5499 c-1 -74 35 -499 38 -437 1 43 -28 458 -34 473 -2 6 -4
-11 -4 -36z"/>
<path d="M4450 5350 c0 -5 -7 -10 -15 -10 -8 0 -15 -7 -15 -15 0 -11 11 -15
39 -15 31 0 40 4 44 20 4 17 2 20 -14 15 -11 -4 -19 -2 -19 4 0 6 -4 11 -10
11 -5 0 -10 -4 -10 -10z"/>
<path d="M4442 5255 c-26 -12 -24 -25 7 -36 15 -6 20 -5 15 3 -5 8 1 9 20 4
23 -6 27 -4 24 11 -2 10 -10 17 -18 15 -7 -2 -16 1 -19 5 -3 5 -16 4 -29 -2z"/>
<path d="M4460 5168 c0 -4 -7 -8 -15 -8 -8 0 -15 -5 -15 -10 0 -16 29 -23 44
-11 7 6 21 8 31 5 15 -6 16 -4 6 14 -10 19 -51 27 -51 10z"/>
<path d="M4367 5085 c6 -51 9 -62 18 -54 2 3 -2 27 -10 54 l-14 50 6 -50z"/>
<path d="M4241 5111 c-8 -5 -20 -7 -28 -4 -7 3 -13 0 -13 -6 0 -6 -9 -11 -21
-11 -11 0 -27 -7 -36 -16 -9 -8 -22 -13 -29 -10 -8 3 -14 -1 -14 -9 0 -7 -8
-16 -18 -19 -9 -3 -35 -24 -57 -46 -22 -21 -45 -39 -52 -40 -7 0 -10 -7 -7
-15 4 -8 -1 -17 -10 -21 -9 -3 -16 -12 -16 -20 0 -8 -7 -14 -15 -14 -8 0 -15
-7 -15 -16 0 -9 -9 -18 -20 -21 -26 -7 -25 -13 4 -41 21 -19 25 -20 30 -6 4 9
10 14 13 10 10 -10 11 -76 2 -82 -14 -8 -52 33 -44 47 6 8 4 10 -5 4 -8 -5
-18 -1 -27 10 -7 11 -13 14 -13 8 0 -13 57 -85 76 -96 9 -5 14 -3 14 6 0 8 6
20 14 26 8 7 13 19 11 29 -1 9 0 11 2 5 3 -7 17 -16 31 -19 15 -3 32 -7 38 -9
8 -2 8 10 1 41 -10 44 -10 44 -30 24 -15 -17 -22 -19 -33 -9 -31 25 -11 65 37
72 27 4 38 35 17 49 -10 6 -8 8 7 6 16 -2 19 2 17 20 -1 15 2 22 10 19 7 -2
27 2 44 9 17 7 34 10 38 7 3 -4 6 -1 6 5 0 20 32 13 37 -7 3 -11 13 -21 24
-24 14 -4 19 -14 19 -41 0 -20 5 -36 10 -36 6 0 10 -12 10 -26 0 -25 1 -26 23
-11 15 10 21 23 19 42 -2 20 0 25 10 19 25 -16 58 -15 58 1 0 17 -9 19 -30 5
-18 -11 -33 9 -19 26 18 22 -25 81 -46 64 -6 -5 -24 -10 -40 -12 -35 -4 -46
23 -20 52 11 12 13 19 5 22 -7 2 8 4 33 4 55 0 60 4 51 38 -6 27 -27 33 -53
17z m-206 -171 c-3 -5 -11 -10 -16 -10 -6 0 -7 5 -4 10 3 6 11 10 16 10 6 0 7
-4 4 -10z m230 -10 c4 -6 11 -8 16 -5 16 11 9 -5 -12 -28 -17 -17 -20 -18 -16
-5 3 10 2 20 -3 23 -13 8 -13 25 -1 25 6 0 13 -5 16 -10z"/>
<path d="M4475 5081 c-3 -6 -15 -11 -26 -11 -10 0 -19 -4 -19 -9 0 -13 43 -22
50 -10 4 5 15 7 24 3 14 -5 17 -3 14 12 -4 21 -33 31 -43 15z"/>
<path d="M4322 4998 c5 -15 28 -18 29 -3 0 6 -7 12 -17 13 -10 3 -15 -1 -12
-10z"/>
<path d="M4481 4994 c-11 -8 -26 -12 -31 -9 -6 3 -10 1 -10 -5 0 -6 12 -15 26
-20 33 -13 34 -13 28 5 -4 8 -1 15 5 15 6 0 11 -5 11 -12 0 -9 3 -9 11 -1 9 9
8 16 -3 27 -14 13 -18 13 -37 0z"/>
<path d="M4563 4958 c4 -29 13 -123 22 -208 9 -85 22 -209 30 -275 12 -103 13
-108 9 -35 -2 47 -11 153 -19 235 -8 83 -18 192 -22 243 -3 50 -10 92 -16 92
-5 0 -7 -21 -4 -52z"/>
<path d="M4117 4941 c-3 -14 0 -21 9 -21 16 0 18 9 5 28 -6 10 -10 9 -14 -7z"/>
<path d="M4336 4951 c-4 -5 -2 -12 3 -15 5 -4 12 -2 15 3 4 5 2 12 -3 15 -5 4
-12 2 -15 -3z"/>
<path d="M4382 4948 c-7 -9 -6 -17 4 -26 12 -11 13 -8 12 13 -3 29 -2 29 -16
13z"/>
<path d="M4423 4885 c0 -27 2 -38 4 -22 2 15 2 37 0 50 -2 12 -4 0 -4 -28z"/>
<path d="M4498 4913 c-10 -2 -18 -9 -18 -14 0 -6 -9 -8 -20 -4 -15 5 -18 3
-14 -8 7 -18 42 -29 50 -15 3 5 12 7 19 4 8 -3 13 4 13 20 0 13 -3 23 -7 23
-3 -1 -14 -3 -23 -6z"/>
<path d="M4395 4822 c0 -31 -4 -65 -9 -75 -6 -13 -5 -16 8 -11 18 7 22 -11 6
-21 -8 -5 -7 -11 1 -21 9 -11 9 -21 0 -40 -9 -20 -9 -25 1 -21 15 5 16 223 2
237 -5 5 -9 -16 -9 -48z"/>
<path d="M4345 4850 c-4 -6 -14 -9 -22 -6 -8 3 -12 2 -9 -3 9 -14 45 -20 52
-9 3 5 2 14 -4 20 -6 6 -12 6 -17 -2z"/>
<path d="M4486 4825 c-3 -8 -13 -15 -23 -15 -13 -1 -10 -5 10 -16 20 -11 32
-12 41 -5 7 6 17 7 21 3 5 -4 5 1 2 11 -4 10 -7 21 -7 24 0 3 -7 0 -15 -7 -13
-11 -14 -10 -9 4 3 9 2 16 -4 16 -5 0 -12 -7 -16 -15z"/>
<path d="M4050 4784 c0 -8 5 -12 10 -9 6 4 8 11 5 16 -9 14 -15 11 -15 -7z"/>
<path d="M4308 4780 c-7 -9 -14 -23 -16 -31 -6 -22 -23 -39 -35 -32 -6 3 -7 1
-3 -5 4 -7 11 -12 17 -12 16 0 44 34 44 55 0 11 7 21 15 21 8 1 21 2 28 3 6 0
12 5 12 11 0 15 -48 8 -62 -10z"/>
<path d="M4238 4762 c-4 -12 1 -18 13 -19 23 -2 24 4 5 22 -12 12 -15 12 -18
-3z"/>
<path d="M3815 4740 c3 -5 15 -10 26 -10 11 0 17 5 14 10 -3 6 -15 10 -26 10
-11 0 -17 -4 -14 -10z"/>
<path d="M4066 4735 c4 -8 10 -15 16 -15 5 0 6 -4 3 -10 -11 -18 42 -10 59 9
15 17 8 40 -8 24 -10 -10 -56 -12 -56 -2 0 5 -4 9 -10 9 -5 0 -7 -7 -4 -15z"/>
<path d="M4343 4742 c-7 -4 -9 -13 -5 -19 5 -8 13 -9 22 -3 10 6 11 13 5 19
-6 6 -16 7 -22 3z"/>
<path d="M4484 4732 l-21 -18 23 -11 c17 -8 24 -8 27 1 3 8 8 7 19 -2 13 -11
16 -9 16 13 0 28 -8 31 -27 13 -10 -11 -11 -10 -6 5 9 22 -4 21 -31 -1z"/>
<path d="M3975 4720 c3 -5 8 -10 11 -10 2 0 4 5 4 10 0 6 -5 10 -11 10 -5 0
-7 -4 -4 -10z"/>
<path d="M4150 4690 c0 -11 4 -20 9 -20 5 0 11 9 14 20 3 13 0 20 -9 20 -8 0
-14 -9 -14 -20z"/>
<path d="M4177 4670 c-11 -10 -27 -16 -40 -13 -21 4 -21 4 -4 -11 19 -15 46
-11 59 8 5 7 8 4 8 -6 0 -10 4 -17 9 -15 5 1 16 -6 23 -15 7 -10 30 -18 53
-20 34 -3 40 0 41 17 2 44 4 45 29 39 19 -5 25 -2 25 9 0 26 -16 28 -44 6 -16
-13 -33 -18 -46 -14 -11 4 -20 2 -20 -4 0 -6 -11 -11 -25 -11 -18 0 -26 7 -31
25 -7 29 -13 30 -37 5z"/>
<path d="M4505 4658 c-4 -10 -13 -18 -21 -18 -20 0 -17 -16 4 -26 24 -11 56
-11 64 0 10 14 -2 35 -17 30 -7 -3 -15 3 -18 13 -4 17 -4 17 -12 1z"/>
<path d="M4130 4610 c0 -5 5 -10 11 -10 5 0 7 5 4 10 -3 6 -8 10 -11 10 -2 0
-4 -4 -4 -10z"/>
<path d="M4190 4580 c8 -5 22 -9 30 -9 10 0 8 3 -5 9 -27 12 -43 12 -25 0z"/>
<path d="M4510 4572 c0 -7 -10 -16 -22 -21 -21 -7 -20 -8 10 -24 18 -9 32 -11
32 -5 0 6 7 8 15 4 11 -4 15 1 15 19 0 18 -4 23 -16 18 -9 -3 -20 0 -25 8 -6
10 -9 11 -9 1z"/>
<path d="M4520 4479 c0 -5 -10 -13 -22 -18 l-23 -9 26 -12 c20 -9 32 -9 48 -1
27 15 26 23 -4 38 -14 6 -25 7 -25 2z"/>
<path d="M4522 4379 c-4 -4 -16 -9 -27 -11 -18 -4 -17 -6 7 -18 35 -17 78 -6
71 18 -4 17 -36 24 -51 11z"/>
<path d="M4534 4297 c-3 -9 -15 -17 -25 -17 -10 0 -19 -4 -19 -10 0 -5 14 -10
31 -10 17 0 28 -4 24 -10 -10 -16 11 -11 25 6 11 13 10 19 -8 36 -19 20 -22
20 -28 5z"/>
<path d="M4531 4199 c-27 -22 -26 -25 11 -34 33 -8 50 18 27 40 -12 12 -18 11
-38 -6z"/>
<path d="M4550 4115 c-7 -8 -19 -15 -26 -15 -26 0 -14 -17 16 -23 39 -8 60 1
60 26 0 11 -3 17 -7 14 -3 -4 -12 -2 -18 3 -9 7 -16 6 -25 -5z"/>
<path d="M4556 4025 c-3 -8 -13 -15 -21 -15 -24 0 -9 -17 19 -22 29 -6 56 8
56 28 0 8 -4 13 -9 9 -5 -3 -12 -1 -16 5 -9 15 -22 12 -29 -5z"/>
<path d="M4570 3945 c-7 -8 -19 -15 -26 -15 -23 0 -16 -19 10 -26 53 -13 86
18 47 43 -15 10 -22 9 -31 -2z"/>
<path d="M4588 3858 c-2 -5 -12 -10 -23 -12 -24 -3 -24 -16 -1 -31 11 -7 22
-6 36 3 13 8 20 8 20 1 0 -5 4 -8 9 -5 15 9 1 44 -19 49 -11 3 -20 1 -22 -5z"/>
<path d="M4640 3845 c0 -8 5 -15 10 -15 6 0 10 7 10 15 0 8 -4 15 -10 15 -5 0
-10 -7 -10 -15z"/>
<path d="M6901 4774 c0 -11 3 -14 6 -6 3 7 2 16 -1 19 -3 4 -6 -2 -5 -13z"/>
<path d="M6932 4230 c0 -14 2 -19 5 -12 2 6 2 18 0 25 -3 6 -5 1 -5 -13z"/>
<path d="M6588 4393 c7 -3 16 -2 19 1 4 3 -2 6 -13 5 -11 0 -14 -3 -6 -6z"/>
<path d="M6485 4380 c-4 -6 6 -10 22 -10 22 0 25 2 13 10 -19 12 -27 12 -35 0z"/>
<path d="M6585 4360 c-3 -6 1 -7 9 -4 18 7 21 14 7 14 -6 0 -13 -4 -16 -10z"/>
<path d="M5330 5951 c0 -6 9 -9 19 -8 11 0 17 5 15 9 -7 11 -34 10 -34 -1z"/>
<path d="M4197 5506 c-3 -8 2 -16 14 -19 10 -3 19 -1 19 4 0 5 -5 9 -11 9 -5
0 -7 5 -4 10 3 6 2 10 -3 10 -6 0 -12 -6 -15 -14z"/>
<path d="M4090 5489 c0 -5 5 -7 10 -4 6 3 10 8 10 11 0 2 -4 4 -10 4 -5 0 -10
-5 -10 -11z"/>
<path d="M3995 5456 c-16 -12 -18 -17 -7 -27 6 -7 12 -9 12 -4 0 4 9 0 20 -10
15 -14 20 -15 20 -4 0 11 2 11 11 -1 9 -13 11 -13 21 1 10 15 13 14 34 -4 13
-11 21 -24 17 -30 -3 -5 5 -3 18 4 l24 13 -27 10 c-16 5 -28 15 -28 22 0 6 -7
15 -16 18 -8 3 -12 12 -9 18 4 7 -1 4 -9 -6 -11 -14 -16 -15 -16 -6 0 11 -3
11 -12 2 -16 -16 -26 -15 -30 4 -3 13 -5 13 -23 0z"/>
<path d="M4100 5460 c0 -5 5 -10 10 -10 6 0 10 5 10 10 0 6 -4 10 -10 10 -5 0
-10 -4 -10 -10z"/>
<path d="M4130 5435 c0 -8 4 -15 9 -15 5 0 11 7 15 15 3 9 0 15 -9 15 -8 0
-15 -7 -15 -15z"/>
<path d="M4085 5348 c-11 -6 -23 -15 -26 -20 -3 -5 -12 -8 -19 -6 -7 2 -15 -3
-17 -9 -3 -8 5 -13 21 -13 16 0 26 -6 26 -15 0 -25 14 -16 33 22 20 40 12 58
-18 41z"/>
<path d="M3786 5331 c-3 -5 0 -11 8 -14 8 -3 17 1 20 9 6 15 -19 20 -28 5z"/>
<path d="M3865 5310 c-4 -13 -16 -20 -33 -21 -27 0 -27 0 -4 -11 12 -6 23 -17
23 -25 1 -7 3 -17 4 -23 1 -5 3 -13 4 -16 0 -3 8 1 16 10 17 16 20 42 6 51 -5
3 -8 17 -5 30 5 30 -2 33 -11 5z"/>
<path d="M3780 5270 c0 -5 5 -10 10 -10 6 0 10 5 10 10 0 6 -4 10 -10 10 -5 0
-10 -4 -10 -10z"/>
<path d="M3812 5257 c-8 -10 -6 -13 9 -14 19 -2 26 11 10 21 -5 3 -14 0 -19
-7z"/>
<path d="M4000 5259 c0 -5 5 -7 10 -4 6 3 10 8 10 11 0 2 -4 4 -10 4 -5 0 -10
-5 -10 -11z"/>
<path d="M3930 5235 c0 -8 5 -15 10 -15 6 0 10 7 10 15 0 8 -4 15 -10 15 -5 0
-10 -7 -10 -15z"/>
<path d="M3959 5209 c-8 -15 -8 -24 0 -32 6 -6 11 -7 12 -1 0 5 2 19 3 32 3
28 0 28 -15 1z"/>
<path d="M3827 5213 c-10 -9 -9 -43 2 -43 5 0 11 6 14 13 6 17 -7 40 -16 30z"/>
<path d="M3546 5203 c-10 -10 -7 -33 5 -33 5 0 7 5 4 10 -3 6 0 10 9 10 8 0
17 -6 19 -12 3 -7 6 -4 6 7 1 20 -29 32 -43 18z"/>
<path d="M3613 5174 c-23 -12 -39 -24 -36 -28 3 -3 12 -1 18 4 9 8 14 5 18
-10 3 -13 0 -20 -9 -20 -18 0 -18 -36 0 -43 19 -8 52 29 34 37 -7 3 -3 3 10 0
24 -6 26 5 13 56 l-6 25 -42 -21z"/>
<path d="M3900 5178 c-14 -11 -24 -25 -22 -30 1 -5 -2 -7 -7 -4 -5 4 -12 2
-16 -3 -3 -6 4 -15 15 -21 29 -15 69 13 66 46 -4 34 -8 35 -36 12z"/>
<path d="M3280 5130 c-8 -5 -10 -10 -5 -10 6 0 17 5 25 10 8 5 11 10 5 10 -5
0 -17 -5 -25 -10z"/>
<path d="M3200 5099 c0 -5 11 -9 25 -9 14 0 25 2 25 4 0 2 -11 6 -25 8 -14 3
-25 1 -25 -3z"/>
<path d="M3680 5097 c0 -14 5 -17 19 -12 11 3 22 1 26 -5 3 -5 -1 -10 -9 -10
-8 0 -18 -5 -22 -11 -4 -8 0 -9 15 -4 12 4 21 2 21 -4 0 -6 -5 -11 -11 -11 -8
0 -7 -5 2 -16 8 -9 15 -12 17 -6 2 6 9 9 17 6 17 -7 83 36 89 59 6 23 -11 22
-19 -2 -7 -23 -38 -37 -44 -20 -2 8 -5 8 -11 -1 -6 -9 -17 -3 -39 21 -19 22
-31 28 -31 19 0 -13 -1 -13 -10 0 -8 13 -10 12 -10 -3z"/>
<path d="M3340 5080 c-9 -16 -8 -20 5 -20 8 0 15 9 15 20 0 11 -2 20 -5 20 -2
0 -9 -9 -15 -20z"/>
<path d="M3388 5083 c-22 -5 -24 -23 -3 -23 22 0 18 -17 -5 -23 -20 -5 -29
-37 -10 -37 5 0 7 6 4 14 -4 9 6 16 30 20 35 7 51 26 21 26 -9 0 -12 6 -9 15
6 15 3 16 -28 8z"/>
<path d="M3125 5060 c3 -5 11 -10 16 -10 6 0 7 5 4 10 -3 6 -11 10 -16 10 -6
0 -7 -4 -4 -10z"/>
<path d="M3575 5040 c-3 -5 -1 -10 4 -10 6 0 11 5 11 10 0 6 -2 10 -4 10 -3 0
-8 -4 -11 -10z"/>
<path d="M3606 5032 c3 -13 1 -28 -4 -35 -15 -20 -22 -47 -12 -47 6 0 10 7 10
16 0 11 6 14 20 9 12 -4 20 -2 20 5 0 6 -4 8 -10 5 -5 -3 -10 1 -10 10 0 13 4
14 21 4 15 -8 24 -8 32 0 6 6 7 11 2 11 -5 0 0 7 11 15 13 10 15 14 5 15 -8 0
-23 -7 -33 -17 -11 -9 -18 -11 -18 -5 0 7 -6 12 -14 12 -8 0 -17 6 -20 13 -3
6 -3 2 0 -11z"/>
<path d="M3430 5020 c0 -5 7 -10 16 -10 10 0 14 -6 10 -15 -5 -15 5 -20 17 -8
8 7 -21 43 -35 43 -4 0 -8 -4 -8 -10z"/>
<path d="M3495 4980 c3 -5 8 -10 11 -10 2 0 4 5 4 10 0 6 -5 10 -11 10 -5 0
-7 -4 -4 -10z"/>
<path d="M3516 4975 c-3 -9 0 -15 8 -15 7 0 13 7 13 15 0 8 -4 15 -8 15 -4 0
-9 -7 -13 -15z"/>
<path d="M2597 4963 c-10 -9 -9 -23 2 -23 5 0 11 7 15 15 5 15 -5 20 -17 8z"/>
<path d="M3438 4963 c-19 -5 -21 -15 -12 -50 l6 -23 19 24 c29 37 23 57 -13
49z m12 -29 c0 -8 -5 -12 -10 -9 -6 4 -8 11 -5 16 9 14 15 11 15 -7z"/>
<path d="M3482 4953 c2 -12 14 -19 33 -21 33 -2 64 12 51 25 -5 4 -11 2 -13
-4 -6 -18 -28 -16 -43 2 -17 20 -32 19 -28 -2z"/>
<path d="M2686 4918 l-19 -33 26 24 c27 24 34 41 19 41 -4 0 -16 -15 -26 -32z"/>
<path d="M3300 4930 c0 -6 6 -13 14 -16 8 -3 17 -16 20 -30 4 -13 11 -24 16
-24 15 0 -9 54 -30 68 -13 8 -20 8 -20 2z"/>
<path d="M3371 4884 c0 -11 3 -14 6 -6 3 7 2 16 -1 19 -3 4 -6 -2 -5 -13z"/>
<path d="M3072 4855 c0 -16 2 -22 5 -12 2 9 2 23 0 30 -3 6 -5 -1 -5 -18z"/>
<path d="M3181 4862 c-1 -7 -7 -12 -13 -11 -14 3 -78 -32 -78 -42 0 -16 49
-14 70 3 12 10 26 15 31 12 11 -6 11 4 -1 31 -5 11 -9 14 -9 7z"/>
<path d="M2877 4729 c-5 -19 -11 -21 -41 -16 -22 3 -39 1 -45 -7 -16 -19 67
-60 88 -43 12 9 13 9 7 0 -4 -8 -2 -13 4 -13 7 0 10 16 8 45 -5 52 -13 65 -21
34z"/>
<path d="M3085 4690 c-3 -5 -1 -10 4 -10 6 0 11 5 11 10 0 6 -2 10 -4 10 -3 0
-8 -4 -11 -10z"/>
<path d="M3215 4680 c-3 -5 -2 -10 4 -10 5 0 13 5 16 10 3 6 2 10 -4 10 -5 0
-13 -4 -16 -10z"/>
<path d="M2928 4673 c7 -3 16 -2 19 1 4 3 -2 6 -13 5 -11 0 -14 -3 -6 -6z"/>
<path d="M2630 4655 c-10 -12 -10 -15 4 -15 9 0 16 7 16 15 0 8 -2 15 -4 15
-2 0 -9 -7 -16 -15z"/>
<path d="M3105 4609 c8 -47 -2 -59 -49 -59 l-29 0 22 24 c18 19 19 24 7 29 -9
4 -17 -1 -20 -11 -3 -9 -4 -5 -2 11 4 32 -11 37 -19 5 -8 -36 -2 -68 13 -68 9
0 11 -7 7 -19 -4 -14 -1 -19 9 -17 9 1 19 5 22 9 4 4 18 7 31 7 13 0 26 7 29
15 4 8 11 15 18 15 13 1 51 50 38 50 -5 0 -26 11 -47 25 l-37 26 7 -42z"/>
<path d="M2940 4610 c16 -29 5 -40 -30 -30 -33 9 -35 8 -20 -21 14 -25 62 -49
97 -48 16 0 22 3 13 6 -18 7 -40 34 -39 48 0 6 3 4 6 -2 2 -7 12 -13 21 -13
13 0 14 2 4 8 -7 5 -10 16 -6 25 7 19 -11 23 -20 5 -3 -7 -4 1 -1 17 4 22 3
26 -5 15 -6 -10 -10 -11 -10 -2 0 6 -5 12 -10 12 -7 0 -7 -7 0 -20z"/>
<path d="M5360 5120 c0 -5 4 -10 9 -10 6 0 13 5 16 10 3 6 -1 10 -9 10 -9 0
-16 -4 -16 -10z"/>
<path d="M7018 5244 c-9 -8 3 -44 13 -38 11 7 12 44 1 44 -5 0 -11 -3 -14 -6z"/>
<path d="M7050 5200 c0 -14 48 -43 60 -35 5 3 10 -1 10 -9 0 -9 5 -16 10 -16
6 0 10 13 10 28 0 25 -3 28 -30 26 -17 -1 -33 2 -36 7 -7 12 -24 11 -24 -1z"/>
<path d="M7175 5141 c-5 -23 -1 -35 14 -50 12 -12 27 -21 35 -21 8 0 17 -6 19
-12 4 -10 6 -10 6 -1 1 6 -3 15 -9 18 -16 10 -12 55 5 55 8 0 15 5 15 10 0 12
-10 13 -29 1 -11 -7 -20 -4 -32 10 -17 20 -17 19 -24 -10z"/>
<path d="M7334 5077 c-3 -9 -3 -25 1 -34 6 -16 8 -16 18 5 7 16 7 26 -1 34 -8
8 -13 7 -18 -5z"/>
<path d="M4690 4825 c0 -27 3 -45 7 -41 7 7 5 77 -3 85 -2 2 -4 -17 -4 -44z"/>
<path d="M4691 4743 c0 -5 4 -17 9 -28 8 -18 9 -17 9 8 1 15 -3 27 -9 27 -5 0
-10 -3 -9 -7z"/>
<path d="M5646 4994 c-4 -9 -5 -19 -2 -21 6 -6 46 20 46 29 0 15 -38 8 -44 -8z"/>
<path d="M5935 4940 c-3 -5 -1 -10 4 -10 6 0 11 5 11 10 0 6 -2 10 -4 10 -3 0
-8 -4 -11 -10z"/>
<path d="M5415 4411 c-6 -11 9 -23 19 -14 9 9 7 23 -3 23 -6 0 -12 -4 -16 -9z"/>
<path d="M6120 4660 c0 -6 7 -10 15 -10 8 0 15 2 15 4 0 2 -7 6 -15 10 -8 3
-15 1 -15 -4z"/>
<path d="M3576 4584 c6 -3 10 -17 8 -32 -4 -27 -4 -27 5 -2 9 28 5 40 -12 39
-8 0 -8 -2 -1 -5z"/>
<path d="M3840 4526 c0 -2 9 -6 20 -9 11 -3 20 -1 20 4 0 5 -9 9 -20 9 -11 0
-20 -2 -20 -4z"/>
<path d="M3783 4505 c-3 -9 -3 -18 -1 -21 3 -3 8 4 11 16 6 23 -1 27 -10 5z"/>
<path d="M3890 4500 c0 -5 4 -10 9 -10 6 0 13 5 16 10 3 6 -1 10 -9 10 -9 0
-16 -4 -16 -10z"/>
<path d="M3530 4490 c0 -5 -12 -10 -26 -10 -16 0 -23 -4 -18 -11 4 -7 7 -25 6
-40 0 -16 4 -31 9 -34 5 -4 9 1 9 9 0 9 5 16 10 16 6 0 10 -4 10 -10 0 -5 4
-10 9 -10 14 0 19 36 8 56 -7 13 -7 19 1 22 7 2 10 8 6 13 -7 12 -24 12 -24
-1z m0 -45 c0 -8 -2 -15 -4 -15 -2 0 -6 7 -10 15 -3 8 -1 15 4 15 6 0 10 -7
10 -15z"/>
<path d="M3830 4470 c0 -5 5 -10 11 -10 5 0 7 5 4 10 -3 6 -8 10 -11 10 -2 0
-4 -4 -4 -10z"/>
<path d="M3857 4460 c-3 -12 -13 -20 -26 -20 -24 0 -28 -15 -6 -24 8 -3 15 -1
15 4 0 6 8 10 18 10 12 0 18 7 17 20 -2 28 -12 34 -18 10z"/>
<path d="M4094 4355 c7 -18 -5 -20 -23 -2 -11 10 -13 10 -7 0 4 -8 1 -13 -8
-13 -8 0 -17 -4 -20 -9 -3 -4 14 -8 37 -7 23 1 41 4 40 9 -2 4 -3 14 -3 22 0
8 -5 15 -11 15 -6 0 -9 -7 -5 -15z"/>
<path d="M3450 4300 c0 -5 5 -10 10 -10 6 0 10 5 10 10 0 6 -4 10 -10 10 -5 0
-10 -4 -10 -10z"/>
<path d="M3480 4300 c0 -5 9 -10 21 -10 11 0 17 5 14 10 -3 6 -13 10 -21 10
-8 0 -14 -4 -14 -10z"/>
<path d="M4098 4193 c7 -3 16 -2 19 1 4 3 -2 6 -13 5 -11 0 -14 -3 -6 -6z"/>
<path d="M6030 3989 c0 -5 5 -7 10 -4 6 3 10 8 10 11 0 2 -4 4 -10 4 -5 0 -10
-5 -10 -11z"/>
<path d="M6076 3992 c-8 -13 10 -52 24 -52 18 0 19 19 2 41 -13 15 -21 19 -26
11z"/>
</g>
</svg>
